<svg xmlns="http://www.w3.org/2000/svg" viewBox="0 0 783.66 571.02"><defs><style>.cls-1{fill:none;stroke:#f1f1f1;stroke-miterlimit:10;stroke-width:0.75px;}</style></defs><g id="Layer_2" data-name="Layer 2"><g id="Isolation_Mode" data-name="Isolation Mode"><polyline class="cls-1" points="31.09 0 31.09 135.06 31.09 571.02"/><polyline class="cls-1" points="47.26 0 47.26 135.06 47.26 571.02"/><polyline class="cls-1" points="63.44 0 63.44 135.06 63.44 571.02"/><polyline class="cls-1" points="79.61 0 79.61 135.06 79.61 571.02"/><polyline class="cls-1" points="95.78 0 95.78 135.06 95.78 571.02"/><polyline class="cls-1" points="111.96 0 111.96 135.06 111.96 571.02"/><polyline class="cls-1" points="128.13 0 128.13 135.06 128.13 571.02"/><polyline class="cls-1" points="144.31 0 144.31 135.06 144.31 571.02"/><polyline class="cls-1" points="160.48 0 160.48 135.06 160.48 571.02"/><polyline class="cls-1" points="176.66 0 176.66 135.06 176.66 571.02"/><polyline class="cls-1" points="192.83 0 192.83 135.06 192.83 571.02"/><polyline class="cls-1" points="209 0 209 135.06 209 571.02"/><polyline class="cls-1" points="225.18 0 225.18 135.06 225.18 571.02"/><polyline class="cls-1" points="241.35 0 241.35 135.06 241.35 571.02"/><polyline class="cls-1" points="257.52 0 257.52 135.06 257.52 571.02"/><polyline class="cls-1" points="273.7 0 273.7 135.06 273.7 571.02"/><polyline class="cls-1" points="289.87 0 289.87 135.06 289.87 571.02"/><polyline class="cls-1" points="306.05 0 306.05 135.06 306.05 571.02"/><polyline class="cls-1" points="322.22 0 322.22 135.06 322.22 571.02"/><polyline class="cls-1" points="338.39 0 338.39 135.06 338.39 571.02"/><polyline class="cls-1" points="354.57 0 354.57 135.06 354.57 571.02"/><polyline class="cls-1" points="370.74 0 370.74 135.06 370.74 571.02"/><polyline class="cls-1" points="386.92 0 386.92 135.06 386.92 571.02"/><polyline class="cls-1" points="403.09 0 403.09 135.06 403.09 571.02"/><polyline class="cls-1" points="419.26 0 419.26 135.06 419.26 571.02"/><polyline class="cls-1" points="435.44 0 435.44 135.06 435.44 571.02"/><polyline class="cls-1" points="451.61 0 451.61 135.06 451.61 571.02"/><polyline class="cls-1" points="467.79 0 467.79 135.06 467.79 571.02"/><polyline class="cls-1" points="483.96 0 483.96 135.06 483.96 571.02"/><polyline class="cls-1" points="500.13 0 500.13 135.06 500.13 571.02"/><polyline class="cls-1" points="516.31 0 516.31 135.06 516.31 571.02"/><polyline class="cls-1" points="532.48 0 532.48 135.06 532.48 571.02"/><polyline class="cls-1" points="548.65 0 548.65 135.06 548.65 571.02"/><polyline class="cls-1" points="564.83 0 564.83 135.06 564.83 571.02"/><polyline class="cls-1" points="581 0 581 135.06 581 571.02"/><polyline class="cls-1" points="597.18 0 597.18 135.06 597.18 571.02"/><polyline class="cls-1" points="613.35 0 613.35 135.06 613.35 571.02"/><polyline class="cls-1" points="629.52 0 629.52 135.06 629.52 571.02"/><polyline class="cls-1" points="645.7 0 645.7 135.06 645.7 571.02"/><polyline class="cls-1" points="661.87 0 661.87 135.06 661.87 571.02"/><polyline class="cls-1" points="678.05 0 678.05 135.06 678.05 571.02"/><polyline class="cls-1" points="694.22 0 694.22 135.06 694.22 571.02"/><polyline class="cls-1" points="710.39 0 710.39 135.06 710.39 571.02"/><polyline class="cls-1" points="726.57 0 726.57 135.06 726.57 571.02"/><polyline class="cls-1" points="742.74 0 742.74 135.06 742.74 571.02"/><polyline class="cls-1" points="758.92 0 758.92 135.06 758.92 571.02"/><polyline class="cls-1" points="783.66 14.59 435.96 14.59 0 14.59"/><polyline class="cls-1" points="783.66 30.77 435.96 30.77 0 30.77"/><polyline class="cls-1" points="783.66 46.94 435.96 46.94 0 46.94"/><polyline class="cls-1" points="783.66 63.11 435.96 63.11 0 63.11"/><polyline class="cls-1" points="783.66 79.29 435.96 79.29 0 79.29"/><polyline class="cls-1" points="783.66 95.46 435.96 95.46 0 95.46"/><polyline class="cls-1" points="783.66 111.64 435.96 111.64 0 111.64"/><polyline class="cls-1" points="783.66 127.81 435.96 127.81 0 127.81"/><polyline class="cls-1" points="783.66 143.98 435.96 143.98 0 143.98"/><polyline class="cls-1" points="783.66 160.16 435.96 160.16 0 160.16"/><polyline class="cls-1" points="783.66 176.33 435.96 176.33 0 176.33"/><polyline class="cls-1" points="783.66 192.5 435.96 192.5 0 192.5"/><polyline class="cls-1" points="783.66 208.68 435.96 208.68 0 208.68"/><polyline class="cls-1" points="783.66 224.85 435.96 224.85 0 224.85"/><polyline class="cls-1" points="783.66 241.03 435.96 241.03 0 241.03"/><polyline class="cls-1" points="783.66 257.2 435.96 257.2 0 257.2"/><polyline class="cls-1" points="783.66 273.37 435.96 273.37 0 273.37"/><polyline class="cls-1" points="783.66 289.55 435.96 289.55 0 289.55"/><polyline class="cls-1" points="783.66 305.72 435.96 305.72 0 305.72"/><polyline class="cls-1" points="783.66 321.9 435.96 321.9 0 321.9"/><polyline class="cls-1" points="783.66 338.07 435.96 338.07 0 338.07"/><polyline class="cls-1" points="783.66 354.24 435.96 354.24 0 354.24"/><polyline class="cls-1" points="783.66 370.42 435.96 370.42 0 370.42"/><polyline class="cls-1" points="783.66 386.59 435.96 386.59 0 386.59"/><polyline class="cls-1" points="783.66 402.76 435.96 402.76 0 402.76"/><polyline class="cls-1" points="783.66 418.94 435.96 418.94 0 418.94"/><polyline class="cls-1" points="783.66 435.11 435.96 435.11 0 435.11"/><polyline class="cls-1" points="783.66 451.29 435.96 451.29 0 451.29"/><polyline class="cls-1" points="783.66 467.46 435.96 467.46 0 467.46"/><polyline class="cls-1" points="783.66 483.63 435.96 483.63 0 483.63"/><polyline class="cls-1" points="783.66 499.81 435.96 499.81 0 499.81"/><polyline class="cls-1" points="783.66 515.98 435.96 515.98 0 515.98"/><polyline class="cls-1" points="783.66 532.16 435.96 532.16 0 532.16"/><polyline class="cls-1" points="783.66 548.33 435.96 548.33 0 548.33"/></g></g></svg>