<svg width="95" height="82" viewBox="0 0 95 82" fill="none" xmlns="http://www.w3.org/2000/svg">
<path d="M88.5 40H35.5C32.7386 40 30.5 42.2386 30.5 45V59C30.5 61.7614 32.7386 64 35.5 64H88.5" stroke="#0077B6" stroke-width="5" stroke-linecap="round"/>
<path d="M36.5 51.5H84.5M36.5 57H84.5M36.5 46H84.5" stroke="#90E0EF" stroke-width="2" stroke-linecap="round"/>
<path d="M34 36.5C31 37 27.5 39.5 27.5 43L23.5 37.5C23.5 37.5 21.1826 34.5694 20 32.5C18.5243 29.9178 17.7504 28.3779 17 25.5C15.9642 21.5277 16.5 15 16.5 15C16.5 15 12.4081 15.8027 10 15C7.9963 14.3321 7.15693 13.3098 5.5 12C3.11703 10.1163 0 6.5 0 6.5C0 6.5 4.239 5.54844 7 5.5C10.148 5.44477 12.2975 4.88462 15 6.5C17.0182 7.70634 19 11 19 11C19 11 19.57 6.08782 22 4.5C23.19 3.72242 23.638 3.40696 25 3C28.5498 1.93936 34 0 34 0C34 0 31.968 5.69543 30 9C28.7804 11.0478 28.5501 11.2843 26.5 12.5C24.9515 13.4182 22 14.5 22 14.5C22 14.5 22.8518 18.5239 24 20.5C25.6648 23.3652 26.9521 25.1997 30 26.5C32.7 27.6519 34.5807 27.3071 37.5 27C41.1845 26.6124 43.1122 25.4995 46.5 24C51.5534 21.7632 53.5818 19.0202 58.5 16.5C62.4703 14.4655 64.5864 12.6502 69 12C74.0817 11.2514 77.5844 11.3758 82 14C85.933 16.3374 87.614 18.8317 89.5 23C91.6866 27.8329 91 36.5 91 36.5H34Z" fill="#0077B6"/>
<circle cx="78.5" cy="21.5" r="1.5" fill="white"/>
<path d="M23.3352 70.2727L25.4446 76.9034H25.5256L27.6392 70.2727H29.6847L26.6761 79H24.2983L21.2855 70.2727H23.3352ZM38.2628 74.6364C38.2628 75.5881 38.0824 76.3977 37.7216 77.0653C37.3636 77.733 36.875 78.2429 36.2557 78.5952C35.6392 78.9446 34.946 79.1193 34.1761 79.1193C33.4006 79.1193 32.7045 78.9432 32.0881 78.5909C31.4716 78.2386 30.9844 77.7287 30.6264 77.0611C30.2685 76.3935 30.0895 75.5852 30.0895 74.6364C30.0895 73.6847 30.2685 72.875 30.6264 72.2074C30.9844 71.5398 31.4716 71.0312 32.0881 70.6818C32.7045 70.3295 33.4006 70.1534 34.1761 70.1534C34.946 70.1534 35.6392 70.3295 36.2557 70.6818C36.875 71.0312 37.3636 71.5398 37.7216 72.2074C38.0824 72.875 38.2628 73.6847 38.2628 74.6364ZM36.392 74.6364C36.392 74.0199 36.2997 73.5 36.1151 73.0767C35.9332 72.6534 35.6761 72.3324 35.3438 72.1136C35.0114 71.8949 34.6222 71.7855 34.1761 71.7855C33.7301 71.7855 33.3409 71.8949 33.0085 72.1136C32.6761 72.3324 32.4176 72.6534 32.233 73.0767C32.0511 73.5 31.9602 74.0199 31.9602 74.6364C31.9602 75.2528 32.0511 75.7727 32.233 76.196C32.4176 76.6193 32.6761 76.9403 33.0085 77.1591C33.3409 77.3778 33.7301 77.4872 34.1761 77.4872C34.6222 77.4872 35.0114 77.3778 35.3438 77.1591C35.6761 76.9403 35.9332 76.6193 36.1151 76.196C36.2997 75.7727 36.392 75.2528 36.392 74.6364ZM47.3299 73.3281H45.4634C45.4293 73.0866 45.3597 72.8722 45.2546 72.6847C45.1495 72.4943 45.0146 72.3324 44.8498 72.1989C44.685 72.0653 44.4947 71.9631 44.2788 71.892C44.0657 71.821 43.8342 71.7855 43.5842 71.7855C43.1325 71.7855 42.739 71.8977 42.4038 72.1222C42.0685 72.3437 41.8086 72.6676 41.6239 73.0938C41.4393 73.517 41.3469 74.0312 41.3469 74.6364C41.3469 75.2585 41.4393 75.7812 41.6239 76.2045C41.8114 76.6278 42.0728 76.9474 42.408 77.1634C42.7433 77.3793 43.131 77.4872 43.5714 77.4872C43.8185 77.4872 44.0472 77.4545 44.2575 77.3892C44.4705 77.3239 44.6594 77.2287 44.8242 77.1037C44.989 76.9759 45.1254 76.821 45.2333 76.6392C45.3441 76.4574 45.4208 76.25 45.4634 76.017L47.3299 76.0256C47.2816 76.4261 47.1609 76.8125 46.9677 77.1847C46.7773 77.554 46.5202 77.8849 46.1964 78.1776C45.8754 78.4673 45.4918 78.6974 45.0458 78.8679C44.6026 79.0355 44.1012 79.1193 43.5415 79.1193C42.7631 79.1193 42.0671 78.9432 41.4535 78.5909C40.8427 78.2386 40.3597 77.7287 40.0046 77.0611C39.6523 76.3935 39.4762 75.5852 39.4762 74.6364C39.4762 73.6847 39.6552 72.875 40.0131 72.2074C40.3711 71.5398 40.8569 71.0312 41.4705 70.6818C42.0842 70.3295 42.7745 70.1534 43.5415 70.1534C44.0472 70.1534 44.516 70.2244 44.9478 70.3665C45.3825 70.5085 45.7674 70.7159 46.1026 70.9886C46.4379 71.2585 46.7106 71.5895 46.9208 71.9815C47.1339 72.3736 47.2702 72.8224 47.3299 73.3281ZM49.9933 79H48.016L51.0288 70.2727H53.4066L56.4151 79H54.4379L52.2518 72.267H52.1836L49.9933 79ZM49.8697 75.5696H54.5401V77.0099H49.8697V75.5696ZM57.4656 79V70.2727H60.9599C61.6019 70.2727 62.1374 70.3679 62.5664 70.5582C62.9954 70.7486 63.3178 71.0128 63.5337 71.3509C63.7496 71.6861 63.8576 72.0724 63.8576 72.5099C63.8576 72.8509 63.7894 73.1506 63.6531 73.4091C63.5167 73.6648 63.3292 73.875 63.0906 74.0398C62.8548 74.2017 62.5849 74.3168 62.2809 74.3849V74.4702C62.6133 74.4844 62.9244 74.5781 63.2141 74.7514C63.5067 74.9247 63.744 75.1676 63.9258 75.4801C64.1076 75.7898 64.1985 76.1591 64.1985 76.5881C64.1985 77.0511 64.0835 77.4645 63.8533 77.8281C63.6261 78.1889 63.2894 78.4744 62.8434 78.6847C62.3974 78.8949 61.8477 79 61.1942 79H57.4656ZM59.3107 77.4915H60.815C61.3292 77.4915 61.7042 77.3935 61.94 77.1974C62.1758 76.9986 62.2937 76.7344 62.2937 76.4048C62.2937 76.1634 62.2354 75.9503 62.119 75.7656C62.0025 75.581 61.8363 75.4361 61.6204 75.331C61.4073 75.2259 61.1531 75.1733 60.8576 75.1733H59.3107V77.4915ZM59.3107 73.9247H60.6786C60.9315 73.9247 61.1559 73.8807 61.3519 73.7926C61.5508 73.7017 61.707 73.5739 61.8207 73.4091C61.9371 73.2443 61.9954 73.0469 61.9954 72.8168C61.9954 72.5014 61.8832 72.2472 61.6587 72.054C61.4371 71.8608 61.1218 71.7642 60.7127 71.7642H59.3107V73.9247ZM67.2443 70.2727V79H65.3991V70.2727H67.2443ZM68.7624 79V70.2727H70.6076V77.4787H74.3491V79H68.7624ZM77.4162 70.2727V79H75.571V70.2727H77.4162ZM78.6019 71.794V70.2727H85.7695V71.794H83.0977V79H81.2738V71.794H78.6019ZM86.4386 70.2727H88.5053L90.4954 74.0312H90.5806L92.5707 70.2727H94.6374L91.4542 75.9148V79H89.6218V75.9148L86.4386 70.2727Z" fill="#FF6392"/>
</svg>
