<svg width="16" height="16" viewBox="0 0 16 16" fill="none" xmlns="http://www.w3.org/2000/svg">
<path d="M6.95005 1.64175C6.8293 1.59562 6.69742 1.58714 6.57176 1.61741C6.44609 1.64768 6.33254 1.7153 6.24605 1.81135L3.55485 4.80015H1.27965C1.10991 4.80015 0.947123 4.86758 0.8271 4.9876C0.707077 5.10763 0.639648 5.27041 0.639648 5.44015V10.8802C0.639648 11.0499 0.707077 11.2127 0.8271 11.3327C0.947123 11.4527 1.10991 11.5202 1.27965 11.5202H3.57405L6.26525 14.2114C6.35457 14.3014 6.46865 14.3629 6.59299 14.388C6.71732 14.4131 6.84632 14.4007 6.96359 14.3523C7.08086 14.304 7.18112 14.2219 7.25164 14.1165C7.32215 14.011 7.35975 13.887 7.35965 13.7602V2.24015C7.35991 2.11068 7.32091 1.98418 7.24778 1.87734C7.17465 1.77051 7.07084 1.68836 6.95005 1.64175ZM6.07965 12.2146L4.29085 10.4258C4.17085 10.3067 4.00865 10.24 3.83965 10.2402H1.91965V6.08015H3.83965C3.9295 6.08039 4.01839 6.0617 4.10053 6.02532C4.18268 5.98893 4.25625 5.93565 4.31645 5.86895L6.07965 3.90735V12.2274V12.2146Z" fill="#5AA9E6"/>
<path d="M11.0528 3.51994C10.9931 3.46069 10.9224 3.41377 10.8446 3.38187C10.7667 3.34996 10.6834 3.33369 10.5993 3.33399C10.5152 3.33429 10.432 3.35114 10.3544 3.3836C10.2769 3.41605 10.2064 3.46347 10.1472 3.52314C10.0879 3.58282 10.041 3.65358 10.0091 3.73138C9.97721 3.80919 9.96094 3.89251 9.96124 3.97661C9.96184 4.14644 10.0299 4.30908 10.1504 4.42874C10.6242 4.89797 11.0003 5.45643 11.257 6.07188C11.5136 6.68732 11.6458 7.34752 11.6458 8.01434C11.6458 8.68116 11.5136 9.34137 11.257 9.95681C11.0003 10.5723 10.6242 11.1307 10.1504 11.5999C10.0745 11.6545 10.0114 11.725 9.96567 11.8065C9.91992 11.888 9.89258 11.9786 9.88559 12.0718C9.87859 12.165 9.89209 12.2586 9.92516 12.3461C9.95822 12.4335 10.01 12.5127 10.077 12.5779C10.1439 12.6432 10.2243 12.693 10.3125 12.7239C10.4008 12.7547 10.4947 12.7659 10.5877 12.7565C10.6807 12.7472 10.7706 12.7176 10.8509 12.6698C10.9313 12.622 11.0002 12.5572 11.0528 12.4799C11.6422 11.8922 12.1099 11.194 12.429 10.4252C12.7481 9.65648 12.9123 8.8323 12.9123 7.99994C12.9123 7.16759 12.7481 6.34341 12.429 5.57465C12.1099 4.80588 11.6422 4.10765 11.0528 3.51994Z" fill="#5AA9E6"/>
<path d="M12.7746 1.79828C12.7163 1.73414 12.6455 1.68252 12.5667 1.64655C12.4878 1.61058 12.4024 1.59101 12.3157 1.58903C12.2291 1.58705 12.1429 1.60271 12.0625 1.63504C11.982 1.66737 11.909 1.71571 11.8478 1.77712C11.7866 1.83853 11.7385 1.91174 11.7065 1.99229C11.6744 2.07285 11.6591 2.15908 11.6614 2.24574C11.6636 2.33241 11.6835 2.41771 11.7198 2.49646C11.756 2.57522 11.8079 2.64578 11.8722 2.70388C12.5716 3.39682 13.1268 4.22147 13.5057 5.1302C13.8846 6.03893 14.0797 7.01373 14.0797 7.99828C14.0797 8.98284 13.8846 9.95764 13.5057 10.8664C13.1268 11.7751 12.5716 12.5997 11.8722 13.2927C11.8126 13.3519 11.7651 13.4224 11.7327 13.4999C11.7002 13.5775 11.6834 13.6607 11.6831 13.7448C11.6828 13.8289 11.699 13.9122 11.731 13.99C11.7629 14.0679 11.8098 14.1386 11.869 14.1983C11.9283 14.258 11.9987 14.3054 12.0763 14.3378C12.1539 14.3703 12.2371 14.3871 12.3212 14.3874C12.4053 14.3877 12.4886 14.3715 12.5664 14.3396C12.6442 14.3077 12.715 14.2607 12.7746 14.2015C13.5935 13.3896 14.2435 12.4236 14.6871 11.3592C15.1307 10.2948 15.3591 9.15303 15.3591 7.99988C15.3591 6.84674 15.1307 5.70501 14.6871 4.64059C14.2435 3.57618 13.5935 2.61016 12.7746 1.79828Z" fill="#5AA9E6"/>
<path d="M9.24781 5.29924C9.1273 5.17958 8.96418 5.11269 8.79435 5.11329C8.62451 5.11389 8.46188 5.18193 8.34221 5.30244C8.22254 5.42296 8.15565 5.58607 8.15625 5.7559C8.15685 5.92574 8.2249 6.08838 8.34541 6.20804C8.58235 6.44279 8.77044 6.72216 8.8988 7.03001C9.02715 7.33787 9.09324 7.6681 9.09324 8.00164C9.09324 8.33518 9.02715 8.66542 8.8988 8.97327C8.77044 9.28112 8.58235 9.56049 8.34541 9.79524C8.28574 9.85449 8.23832 9.92492 8.20586 10.0025C8.17341 10.0801 8.15655 10.1633 8.15625 10.2474C8.15596 10.3315 8.17223 10.4148 8.20413 10.4926C8.23604 10.5704 8.28296 10.6412 8.34221 10.7008C8.40146 10.7605 8.47189 10.8079 8.54947 10.8404C8.62704 10.8728 8.71025 10.8897 8.79435 10.89C8.87844 10.8903 8.96177 10.874 9.03957 10.8421C9.11738 10.8102 9.18814 10.7633 9.24781 10.704C9.60473 10.3503 9.88804 9.92936 10.0814 9.46553C10.2747 9.00169 10.3743 8.50416 10.3743 8.00164C10.3743 7.49913 10.2747 7.00159 10.0814 6.53775C9.88804 6.07392 9.60473 5.65298 9.24781 5.29924Z" fill="#5AA9E6"/>
</svg>
