<svg width="32" height="32" viewBox="0 0 32 32" fill="none" xmlns="http://www.w3.org/2000/svg">
<path d="M13.5156 6.63935C17.3057 6.63935 20.3892 9.72351 20.3892 13.5149V13.2333H23.8231C23.6759 7.76959 19.2612 3.35455 13.7969 3.20703V6.63935H13.5156Z" fill="#FFE45E"/>
<path d="M28.8047 26.3672L26.3719 28.7999L18.1397 20.5678L20.5725 18.135L28.8047 26.3672Z" fill="#5AA9E6"/>
<path d="M23.8238 13.2334H20.3899V13.515C20.3895 17.3057 17.306 20.3896 13.5156 20.3896H13.7972V23.8235C19.2609 23.6763 23.6759 19.2609 23.8235 13.7966C23.826 13.7028 23.8305 13.6097 23.8305 13.5156V13.515V13.234H23.8238V13.2334Z" fill="#5AA9E6"/>
<path d="M13.5149 20.3899C9.72479 20.3895 6.64095 17.3057 6.64063 13.5156V13.7966L6.35903 13.7972H3.20703C3.35487 19.2609 7.76991 23.6756 13.2333 23.8235C13.327 23.826 13.4205 23.8305 13.5149 23.8305H13.5155H13.7965V23.8235V20.3899H13.5149Z" fill="#FF6392"/>
<path d="M6.64116 13.7964V13.5154V13.5148C6.64116 9.72436 9.725 6.6402 13.5154 6.63988H13.516H13.797V3.20724V3.2002H13.5154C13.421 3.2002 13.3276 3.20468 13.2338 3.20724C7.76979 3.3554 3.35508 7.7698 3.20724 13.2335C3.20468 13.3276 3.2002 13.421 3.2002 13.5154V13.797H3.20724H6.35924L6.64116 13.7964Z" fill="#7FC8F8"/>
</svg>
