<svg width="1194" height="174" viewBox="0 0 1194 174" fill="none" xmlns="http://www.w3.org/2000/svg">
<path d="M57.4399 73.5399L57.2422 73.6252C56.5429 73.757 55.8328 73.7592 55.1536 73.6318C54.4743 73.5043 53.8395 73.2498 53.2861 72.883C53.1937 72.8234 53.1161 72.7465 53.0579 72.6567C52.9998 72.5668 52.9621 72.4658 52.947 72.3594C52.932 72.253 52.9398 72.1433 52.9702 72.0365C53.0006 71.9298 53.0528 71.8281 53.124 71.7372C53.1952 71.6463 53.2839 71.5681 53.385 71.5069C53.4861 71.4458 53.5977 71.4029 53.7134 71.3808C53.8291 71.3587 53.9467 71.3578 54.0593 71.3781C54.172 71.3983 54.2776 71.4395 54.37 71.4991C54.7383 71.7482 55.1622 71.9221 55.6166 72.0105C56.0711 72.0989 56.5469 72.1 57.0159 72.0137C57.25 71.971 57.4859 72.0144 57.673 72.1346C57.86 72.2548 57.9834 72.4422 58.0167 72.6567C58.0336 72.8353 57.9863 73.0186 57.8821 73.1783C57.7778 73.3379 57.6224 73.465 57.4399 73.5399ZM60.6652 71.9543C60.5023 72.0238 60.3244 72.0482 60.1542 72.0245C59.9839 72.0007 59.8288 71.9299 59.7085 71.8209C59.5464 71.6755 59.4564 71.4726 59.4574 71.2551C59.4584 71.0377 59.5504 70.8227 59.7139 70.6557C60.0487 70.3233 60.3105 69.9347 60.4826 69.5146C60.6547 69.0945 60.7333 68.6521 60.7135 68.2156C60.7043 68.1036 60.7202 67.9893 60.7602 67.8798C60.8003 67.7704 60.8636 67.6681 60.9462 67.5794C61.0288 67.4907 61.1289 67.4174 61.2403 67.3643C61.3517 67.3111 61.472 67.2792 61.5936 67.2705C61.7152 67.2617 61.8356 67.2764 61.9472 67.3136C62.0587 67.3507 62.1591 67.4095 62.242 67.4864C62.3249 67.5632 62.3885 67.6564 62.4289 67.7601C62.4693 67.8638 62.4856 67.9758 62.4768 68.0891C62.5004 68.7469 62.3772 69.4124 62.115 70.044C61.8527 70.6756 61.4571 71.2597 60.9527 71.7598C60.8532 71.8485 60.7392 71.9215 60.6158 71.9757L60.6652 71.9543ZM109.526 50.4654C108.748 50.7103 107.936 50.8028 107.142 50.7368C106.566 50.7069 106.004 50.606 105.468 50.437C105.251 50.367 105.08 50.2173 104.991 50.0208C104.903 49.8244 104.905 49.5973 104.996 49.3894C105.088 49.1816 105.262 49.0101 105.48 48.9126C105.699 48.8151 105.943 48.7997 106.16 48.8697C106.544 49.0005 106.951 49.0742 107.368 49.0883C107.921 49.1424 108.489 49.0836 109.034 48.9159C109.257 48.8315 109.5 48.8306 109.71 48.9135C109.919 48.9964 110.079 49.1563 110.153 49.358C110.227 49.5597 110.21 49.7867 110.105 49.989C109.999 50.1914 109.815 50.3525 109.592 50.4369L109.526 50.4654ZM150.479 31.0324C150.403 31.0821 150.319 31.1183 150.231 31.1391C150.014 31.1571 149.803 31.1001 149.639 30.9791C149.475 30.8581 149.37 30.6815 149.342 30.4831C149.294 29.7816 149.184 28.6661 148.948 27.3052C148.914 27.0944 148.971 26.8731 149.107 26.689C149.243 26.5049 149.448 26.3728 149.677 26.3212C149.908 26.2726 150.143 26.3078 150.333 26.4195C150.523 26.5312 150.654 26.7107 150.698 26.9203C150.943 28.3477 151.055 29.5149 151.123 30.261C151.133 30.4472 151.072 30.6357 150.951 30.7939C150.83 30.9522 150.657 31.0703 150.461 31.128L150.479 31.0324ZM111.473 47.8635C111.368 47.934 111.25 47.9848 111.127 48.0129C110.895 48.0133 110.678 47.93 110.523 47.7804C110.367 47.6309 110.284 47.4266 110.292 47.2102C110.303 46.3327 110.119 45.4761 109.753 44.6938L109.638 44.4264C109.553 44.2294 109.558 44.0031 109.652 43.7971C109.747 43.5911 109.923 43.4225 110.141 43.3282C110.36 43.2339 110.603 43.2217 110.818 43.2943C111.032 43.3669 111.201 43.5184 111.286 43.7154L111.42 44.0273C111.902 45.0277 112.132 46.1321 112.092 47.2613C112.05 47.4087 111.964 47.5452 111.846 47.6554C111.728 47.7655 111.582 47.845 111.423 47.8849L111.473 47.8635ZM103.325 48.5955C103.151 48.6707 102.959 48.6932 102.779 48.6598C102.599 48.6263 102.44 48.5386 102.326 48.4098C101.542 47.5371 100.917 46.5469 100.472 45.4739C100.428 45.378 100.406 45.2735 100.407 45.1663C100.408 45.0592 100.431 44.9517 100.477 44.8501C100.522 44.7485 100.588 44.6548 100.671 44.5745C100.754 44.4943 100.852 44.4291 100.959 44.3828C101.175 44.2939 101.414 44.2829 101.625 44.3521C101.837 44.4214 102.006 44.5655 102.097 44.7551C102.475 45.7044 103.007 46.5854 103.675 47.3693C103.819 47.5315 103.885 47.7446 103.859 47.9632C103.833 48.1818 103.717 48.3886 103.535 48.5398L103.325 48.5955ZM52.0115 70.4728C51.8086 70.5611 51.5831 70.5772 51.3799 70.5179C51.1768 70.4585 51.011 70.3282 50.9156 70.1528C50.7237 69.7779 50.5567 69.391 50.4157 68.9941C50.1329 68.3323 49.8977 67.6511 49.7115 66.9545C49.6835 66.8508 49.6781 66.7416 49.6957 66.6328C49.7133 66.5241 49.7536 66.418 49.8141 66.3207C49.8747 66.2234 49.9544 66.1368 50.0487 66.0657C50.143 65.9946 50.25 65.9405 50.3637 65.9065C50.4774 65.8725 50.5955 65.8592 50.7112 65.8675C50.827 65.8757 50.9381 65.9053 51.0383 65.9545C51.1385 66.0037 51.2258 66.0716 51.2952 66.1543C51.3646 66.237 51.4147 66.3329 51.4427 66.4365C51.6151 67.0635 51.8279 67.6777 52.0801 68.2759C52.2339 68.6324 52.3749 68.9592 52.5159 69.286C52.5694 69.3787 52.6018 69.4818 52.6112 69.5893C52.6206 69.6969 52.6068 69.8066 52.5706 69.9124C52.5344 70.0181 52.4766 70.1177 52.4004 70.2053C52.3243 70.293 52.2313 70.367 52.1269 70.423L52.0115 70.4728ZM60.9779 65.7932C60.7694 65.8834 60.5375 65.8973 60.3309 65.8322C60.1242 65.767 59.9588 65.6277 59.8692 65.4435C59.3919 64.5428 58.8005 63.7042 58.1066 62.9443C57.9683 62.7798 57.908 62.5668 57.9383 62.35C57.9687 62.1332 58.0874 61.9295 58.2695 61.7815C58.3606 61.7073 58.4656 61.65 58.5781 61.6129C58.6906 61.5758 58.8082 61.5598 58.924 61.5658C59.0398 61.5718 59.1513 61.5997 59.2519 61.6478C59.3524 61.6959 59.4399 61.7632 59.5091 61.8457C60.289 62.6926 60.945 63.6347 61.4621 64.6504C61.5109 64.7451 61.5384 64.8493 61.5429 64.957C61.5475 65.0646 61.529 65.1737 61.4886 65.2779C61.4483 65.3821 61.3867 65.4793 61.3075 65.5641C61.2284 65.6489 61.1332 65.7195 61.0274 65.7719L60.9779 65.7932ZM149.316 24.7149L149.201 24.7646C149.088 24.8003 148.971 24.815 148.855 24.8077C148.74 24.8004 148.629 24.7713 148.53 24.7222C148.43 24.673 148.343 24.6049 148.275 24.5218C148.207 24.4387 148.159 24.3424 148.133 24.2385C147.842 23.2013 147.524 22.1931 147.154 21.243C147.09 21.0424 147.109 20.8217 147.205 20.6214C147.302 20.4211 147.47 20.2546 147.68 20.1525C147.79 20.1071 147.908 20.082 148.025 20.0788C148.143 20.0756 148.258 20.0943 148.364 20.1338C148.471 20.1733 148.566 20.2328 148.644 20.3088C148.722 20.3848 148.783 20.4758 148.821 20.5765C149.244 21.5569 149.554 22.6387 149.823 23.6683C149.899 23.8568 149.895 24.0709 149.809 24.2678C149.724 24.4647 149.564 24.6298 149.362 24.7303L149.316 24.7149ZM108.908 42.0102C108.725 42.0872 108.523 42.1071 108.336 42.0667C108.149 42.0263 107.986 41.9279 107.873 41.787C107.211 40.974 106.483 40.2105 105.695 39.5024C105.547 39.3444 105.476 39.1332 105.5 38.9151C105.523 38.6969 105.638 38.4898 105.819 38.339C105.901 38.2575 105.999 38.1911 106.107 38.1438C106.215 38.0964 106.331 38.0691 106.447 38.0634C106.563 38.0577 106.677 38.0737 106.783 38.1106C106.889 38.1474 106.984 38.2043 107.063 38.2779C107.929 39.0454 108.722 39.882 109.432 40.7795C109.564 40.9492 109.615 41.1658 109.573 41.3821C109.53 41.5983 109.399 41.7967 109.207 41.9339L108.908 42.0102ZM100.526 42.79L100.394 42.8469C100.28 42.877 100.162 42.8862 100.048 42.8738C99.9329 42.8614 99.8237 42.8278 99.7263 42.7748C99.6289 42.7218 99.5453 42.6505 99.4802 42.565C99.4151 42.4796 99.3698 42.3816 99.347 42.2769C99.1144 41.1843 98.9614 40.0731 98.889 38.9504C98.8808 38.7348 98.9629 38.5183 99.1182 38.3462C99.2735 38.1741 99.4899 38.0598 99.7221 38.0271C99.8385 38.0108 99.9554 38.0163 100.066 38.0434C100.176 38.0704 100.278 38.1185 100.365 38.1846C100.452 38.2508 100.522 38.3336 100.572 38.4283C100.621 38.5229 100.649 38.6274 100.653 38.7354C100.719 39.7845 100.866 40.8222 101.094 41.8403C101.133 42.0243 101.103 42.2202 101.009 42.3957C100.914 42.5711 100.76 42.7157 100.572 42.8055L100.526 42.79ZM50.2084 64.2556C50.133 64.3052 50.0491 64.3414 49.9612 64.3622C49.7294 64.3932 49.5006 64.3385 49.3244 64.2101C49.1483 64.0816 49.0389 63.8897 49.02 63.6759C48.9229 62.5554 48.9115 61.4239 48.9859 60.2899C49.003 60.0733 49.109 59.8649 49.2818 59.7083C49.4546 59.5516 49.6809 59.4588 49.9133 59.4492C50.0297 59.4447 50.1442 59.462 50.2498 59.5003C50.3554 59.5385 50.45 59.5969 50.5279 59.6718C50.6059 59.7467 50.6656 59.8367 50.7034 59.9364C50.7413 60.036 50.7566 60.1433 50.7483 60.2518C50.6899 61.3158 50.6976 62.3773 50.7714 63.4311C50.7862 63.5974 50.7443 63.7678 50.6516 63.9184C50.5588 64.069 50.4199 64.1923 50.2542 64.271L50.2084 64.2556ZM56.7332 60.8939C56.5789 60.9608 56.4107 60.9873 56.2478 60.9703C56.085 60.9534 55.934 60.8936 55.8121 60.7979C54.9561 60.1396 54.0455 59.5433 53.0874 59.0134C52.8958 58.8998 52.7664 58.7164 52.7277 58.5034C52.689 58.2905 52.7441 58.0655 52.8809 57.8779C53.0177 57.6904 53.225 57.5557 53.4572 57.5034C53.6894 57.4511 53.9275 57.4855 54.1191 57.5991C55.0965 58.1924 56.0299 58.8428 56.9144 59.547C57 59.6142 57.0693 59.6974 57.1182 59.792C57.1671 59.8867 57.1947 59.9908 57.1994 60.0985C57.2041 60.2061 57.1858 60.3152 57.1455 60.4194C57.1053 60.5236 57.0438 60.621 56.9648 60.7058C56.9131 60.781 56.8505 60.8496 56.7789 60.9094L56.7332 60.8939ZM9.49958 80.1299L9.36775 80.1868C9.15135 80.2455 8.92526 80.2278 8.7342 80.1373C8.54314 80.0469 8.40101 79.8901 8.33591 79.6982C8.09771 78.6037 7.95558 77.4866 7.91087 76.3575C7.90255 76.1424 7.98595 75.9266 8.14305 75.7566C8.30014 75.5866 8.51831 75.4761 8.75035 75.449C8.86669 75.4327 8.98362 75.4382 9.09411 75.4653C9.2046 75.4924 9.30637 75.5404 9.39333 75.6066C9.48028 75.6727 9.55063 75.7556 9.60015 75.8502C9.64967 75.9449 9.67733 76.0493 9.68149 76.1573C9.74402 77.1651 9.8685 78.1645 10.0543 79.1505C10.1025 79.3398 10.0725 79.5443 9.97021 79.725C9.86788 79.9056 9.70034 80.0498 9.49958 80.1299ZM104.074 37.5587C103.93 37.6199 103.774 37.6461 103.622 37.6346C103.469 37.6231 103.326 37.5743 103.206 37.4931C102.347 36.9236 101.465 36.3882 100.558 35.8868C100.476 36.0133 100.361 36.1193 100.225 36.1937C100.088 36.2682 99.9354 36.3082 99.7824 36.3095C99.5505 36.3099 99.3342 36.2267 99.1786 36.0771C99.023 35.9275 98.9402 35.7233 98.9474 35.5069C99.04 34.366 99.2006 33.226 99.4287 32.0923C99.466 31.8762 99.5925 31.6761 99.7807 31.5355C99.9689 31.3949 100.204 31.3251 100.434 31.3414C100.666 31.3622 100.874 31.4677 101.012 31.6354C101.15 31.803 101.208 32.0194 101.173 32.2384C101.059 32.9102 100.96 33.5871 100.876 34.2693C101.076 34.2249 101.282 34.2492 101.453 34.3376C102.48 34.8696 103.467 35.4619 104.408 36.111C104.589 36.234 104.705 36.4225 104.731 36.6356C104.757 36.8487 104.691 37.0692 104.547 37.2491C104.432 37.4029 104.275 37.5259 104.094 37.6032L104.074 37.5587ZM146.96 18.6658C146.753 18.7559 146.523 18.7722 146.315 18.7115C146.108 18.6507 145.939 18.5173 145.841 18.338C145.363 17.4476 144.812 16.5957 144.194 15.789C144.125 15.7019 144.076 15.6014 144.051 15.4935C144.026 15.3855 144.025 15.2723 144.048 15.1605C144.071 15.0488 144.117 14.9407 144.184 14.8428C144.252 14.7449 144.338 14.6592 144.44 14.5907C144.535 14.5236 144.643 14.474 144.756 14.445C144.87 14.4159 144.986 14.4079 145.1 14.4214C145.213 14.4349 145.321 14.4696 145.416 14.5236C145.511 14.5776 145.593 14.6497 145.655 14.7356C146.311 15.6155 146.904 16.5365 147.432 17.4932C147.483 17.5869 147.513 17.6906 147.52 17.7981C147.527 17.9057 147.51 18.0151 147.472 18.1201C147.434 18.2251 147.374 18.3235 147.297 18.4097C147.219 18.4959 147.125 18.5682 147.02 18.6225L146.96 18.6658ZM50.6108 57.6681C50.4599 57.7315 50.297 57.7593 50.1375 57.749C49.9594 57.7288 49.7965 57.6574 49.6708 57.5446C49.5452 57.4317 49.4629 57.2828 49.4352 57.1182C48.7 56.8187 47.9383 56.5483 47.1463 56.3438C47.039 56.3091 46.9416 56.2545 46.8598 56.1831C46.778 56.1117 46.7133 56.0249 46.6696 55.9276C46.6258 55.8304 46.6037 55.7245 46.6046 55.6162C46.6055 55.5079 46.6293 55.3991 46.6748 55.2962C46.7202 55.1933 46.7863 55.0982 46.8694 55.0164C46.9525 54.9346 47.0508 54.8677 47.1589 54.8194C47.2669 54.7711 47.3826 54.7425 47.4992 54.7351C47.6157 54.7278 47.731 54.7418 47.8384 54.7765C48.475 54.9834 49.0994 55.2074 49.7116 55.4483C49.8791 54.7946 50.0594 54.1705 50.2241 53.4651C50.2955 53.2521 50.4529 53.0678 50.6618 52.9529C50.8707 52.838 51.1138 52.8018 51.3378 52.8524C51.5618 52.9029 51.7483 53.0361 51.8562 53.2224C51.9642 53.4088 51.9847 53.6333 51.9133 53.8463C51.6726 54.6021 51.4712 55.3586 51.2992 56.1377C51.4214 56.2565 51.4978 56.4107 51.5178 56.5789C51.5378 56.7471 51.5005 56.9209 51.4109 57.0762C51.3483 57.1857 51.2607 57.2822 51.1547 57.3585C51.0487 57.4348 50.9272 57.4887 50.7994 57.5163C50.7554 57.5899 50.698 57.6564 50.63 57.7127L50.6108 57.6681ZM9.12375 73.5964C8.99722 73.6468 8.86324 73.6747 8.72917 73.6785C8.61027 73.6808 8.49392 73.6606 8.38711 73.6192C8.2803 73.5778 8.18522 73.5161 8.10758 73.4377C8.02994 73.3593 7.97134 73.2659 7.93529 73.163C7.89924 73.0601 7.88649 72.95 7.8978 72.8391C7.98052 71.7027 8.14346 70.567 8.38554 69.4393C8.40318 69.3278 8.44481 69.2191 8.5079 69.1198C8.57098 69.0205 8.65421 68.9328 8.7525 68.8619C8.85078 68.791 8.96208 68.7384 9.07959 68.7074C9.1971 68.6764 9.31837 68.6676 9.43601 68.6815C9.55365 68.6954 9.66519 68.7318 9.76383 68.7884C9.86247 68.845 9.94615 68.9206 10.0098 69.0107C10.0734 69.1008 10.1156 69.2034 10.1338 69.3123C10.1521 69.4212 10.146 69.5341 10.1159 69.6442C9.89374 70.7064 9.74791 71.7759 9.67943 72.8456C9.66693 73.0013 9.60835 73.1539 9.51023 73.2865C9.4121 73.4191 9.2783 73.5263 9.12375 73.5964ZM98.1371 34.535C98.0226 34.5832 97.9006 34.6103 97.7783 34.6146C97.656 34.619 97.5358 34.6006 97.4248 34.5604C96.3922 34.1688 95.3332 33.8317 94.2524 33.5506C94.0394 33.4748 93.8728 33.3224 93.7878 33.1255C93.7029 32.9287 93.7063 32.7028 93.7973 32.4959C93.8427 32.3943 93.9087 32.3006 93.9915 32.2204C94.0744 32.1401 94.1724 32.0749 94.2798 32.0286C94.3872 31.9822 94.5019 31.9556 94.6171 31.9504C94.7324 31.9452 94.8458 31.9614 94.9509 31.9982C96.0904 32.2952 97.2082 32.648 98.2999 33.0551C98.407 33.0908 98.5037 33.1465 98.5846 33.219C98.6655 33.2914 98.7289 33.3792 98.7712 33.4773C98.8135 33.5753 98.8339 33.6817 98.8311 33.7903C98.8283 33.8988 98.8025 34.0074 98.755 34.1098C98.6871 34.2153 98.5969 34.3078 98.4903 34.3811C98.3838 34.4544 98.2633 34.5069 98.1371 34.535ZM143.069 13.5434C142.902 13.6144 142.719 13.639 142.545 13.6138C142.37 13.5887 142.212 13.515 142.089 13.4023C141.33 12.6878 140.496 12.0448 139.599 11.4814C139.504 11.425 139.423 11.3502 139.362 11.2616C139.301 11.1731 139.261 11.0725 139.245 10.9661C139.228 10.8597 139.235 10.7496 139.265 10.6424C139.295 10.5353 139.348 10.4333 139.42 10.3427C139.564 10.1612 139.773 10.0334 140.004 9.98627C140.235 9.93908 140.47 9.97617 140.66 10.0897C141.653 10.7035 142.574 11.4099 143.408 12.1991C143.487 12.2725 143.549 12.3608 143.589 12.4591C143.63 12.5574 143.649 12.6637 143.644 12.7718C143.64 12.88 143.613 12.988 143.565 13.0895C143.517 13.1911 143.448 13.2843 143.363 13.3637C143.275 13.438 143.176 13.4987 143.069 13.5434ZM44.5343 55.4093C44.3552 55.5047 44.1513 55.543 43.9557 55.518C42.8753 55.2794 41.8078 55.0704 40.6213 54.9481C40.3913 54.9149 40.1914 54.7978 40.0644 54.622C39.9374 54.4462 39.8934 54.2257 39.9419 54.0078C39.9633 53.9001 40.007 53.7958 40.0706 53.7008C40.1342 53.6059 40.2164 53.5222 40.3126 53.4545C40.4087 53.3868 40.5168 53.3365 40.6307 53.3065C40.7446 53.2765 40.8621 53.2673 40.9764 53.2795C42.1592 53.4387 43.3385 53.6347 44.4811 53.8817C44.7037 53.931 44.8897 54.062 44.9984 54.2461C45.1072 54.4302 45.1299 54.6526 45.0616 54.8646C45.021 54.9837 44.9524 55.0947 44.861 55.189C44.7696 55.2834 44.6579 55.3588 44.5343 55.4093ZM52.7472 51.2487C52.6412 51.2961 52.5277 51.3241 52.4133 51.3311C52.2989 51.3381 52.1859 51.324 52.0807 51.2896C51.9737 51.2539 51.8769 51.1982 51.796 51.1257C51.7151 51.0533 51.6517 50.9655 51.6094 50.8674C51.5671 50.7694 51.5468 50.663 51.5495 50.5545C51.5523 50.4459 51.5782 50.3373 51.6256 50.2349C52.1112 49.1701 52.6598 48.1274 53.2687 47.1119C53.3962 46.9347 53.587 46.8037 53.8034 46.7446C54.0198 46.6856 54.2461 46.7029 54.4374 46.7932C54.6287 46.8834 54.7711 47.04 54.8365 47.2319C54.9018 47.4239 54.8854 47.6372 54.7904 47.8297C54.2198 48.7867 53.7036 49.7683 53.2443 50.7699C53.1485 50.9799 52.9697 51.1521 52.7472 51.2487ZM101.386 29.6972C101.208 29.7753 101.012 29.798 100.827 29.7619C100.604 29.7153 100.416 29.5884 100.301 29.4078C100.187 29.2272 100.156 29.0069 100.214 28.7932C100.513 27.6804 100.873 26.5783 101.291 25.4915C101.337 25.3899 101.403 25.2962 101.486 25.2159C101.568 25.1357 101.666 25.0705 101.774 25.0241C101.881 24.9778 101.996 24.9512 102.111 24.946C102.226 24.9408 102.34 24.957 102.445 24.9937C102.552 25.0294 102.649 25.0851 102.73 25.1576C102.81 25.23 102.874 25.3178 102.916 25.4159C102.958 25.5139 102.979 25.6203 102.976 25.7289C102.973 25.8374 102.947 25.946 102.9 26.0484C102.476 27.0594 102.107 28.1525 101.772 29.1428C101.746 29.265 101.69 29.3819 101.609 29.4843C101.528 29.5867 101.423 29.6718 101.304 29.7327L101.386 29.6972ZM91.5634 32.755C91.3926 32.8279 91.2062 32.8531 91.0279 32.8275C89.9191 32.6678 88.7975 32.5636 87.6678 32.5154C87.5524 32.5096 87.4411 32.4826 87.3401 32.4359C87.2392 32.3892 87.1507 32.3237 87.0796 32.2431C87.0085 32.1625 86.9563 32.0684 86.9259 31.9662C86.8955 31.864 86.8875 31.7557 86.9024 31.6475C86.9173 31.5392 86.9548 31.4332 87.0127 31.3353C87.0707 31.2375 87.1479 31.1499 87.2401 31.0774C87.3322 31.0049 87.4375 30.949 87.5498 30.9129C87.6621 30.8767 87.7794 30.8611 87.8948 30.8668C89.0917 30.9327 90.2798 31.0552 91.4544 31.2339C91.5686 31.25 91.6765 31.2874 91.7718 31.3439C91.8671 31.4004 91.948 31.4749 92.0097 31.5631C92.0713 31.6512 92.1126 31.7512 92.1311 31.8574C92.1496 31.9635 92.1449 32.0736 92.1173 32.1812C92.0752 32.3225 91.994 32.4535 91.8821 32.5607C91.7702 32.6678 91.6317 32.7472 91.481 32.7906L91.5634 32.755ZM10.5982 67.0925C10.3903 67.1761 10.1633 67.1933 9.9546 67.1412C9.84758 67.1055 9.75083 67.0498 9.66995 66.9773C9.58906 66.9049 9.52564 66.8171 9.48333 66.719C9.44102 66.621 9.42067 66.5146 9.42344 66.406C9.42622 66.2975 9.45207 66.1889 9.49951 66.0865C9.94243 64.9857 10.4974 63.92 11.1564 62.9047C11.2188 62.8084 11.3001 62.723 11.3956 62.6535C11.4911 62.584 11.599 62.5318 11.7132 62.4997C11.8273 62.4676 11.9454 62.4564 12.0608 62.4666C12.1761 62.4769 12.2865 62.5084 12.3855 62.5594C12.4845 62.6104 12.5702 62.6798 12.6378 62.7638C12.7054 62.8478 12.7536 62.9446 12.7794 63.0488C12.8053 63.153 12.8085 63.2625 12.7887 63.371C12.769 63.4795 12.7267 63.585 12.6643 63.6813C12.042 64.6062 11.5196 65.5816 11.1054 66.5918C11.0073 66.8087 10.8256 66.9881 10.5982 67.0925ZM37.6201 54.5163C37.4818 54.5746 37.3331 54.6025 37.1862 54.5978C36.071 54.5504 34.9129 54.5391 33.7511 54.5647C33.6346 54.569 33.5201 54.5518 33.4141 54.5141C33.3082 54.4764 33.2129 54.4189 33.1337 54.3449C33.0546 54.271 32.9932 54.1821 32.953 54.0833C32.9128 53.9844 32.8947 53.8777 32.8996 53.7692C32.8923 53.6499 32.9128 53.5285 32.9597 53.4134C33.0067 53.2982 33.079 53.192 33.1717 53.1019C33.2644 53.0117 33.3754 52.9398 33.4971 52.8909C33.6189 52.8421 33.7485 52.8174 33.8773 52.8187C35.0895 52.789 36.287 52.8009 37.4699 52.8543C37.7012 52.8696 37.9103 52.9686 38.0531 53.1305C38.1959 53.2924 38.2613 53.5046 38.2353 53.7222C38.2309 53.8919 38.1691 54.06 38.0586 54.2026C37.9482 54.3452 37.7947 54.455 37.6201 54.5163ZM56.2395 45.3895C56.0951 45.4479 55.9395 45.4705 55.7886 45.4551C55.6377 45.4397 55.497 45.3869 55.3807 45.302C55.2875 45.2439 55.2088 45.1684 55.1493 45.0797C55.0899 44.991 55.0507 44.8909 55.0341 44.7851C55.0175 44.6793 55.0238 44.5699 55.0526 44.4632C55.0815 44.3565 55.1323 44.2545 55.2021 44.1632C55.9342 43.1935 56.7273 42.2627 57.5768 41.3765C57.6569 41.2923 57.7532 41.2228 57.86 41.172C57.9668 41.1213 58.0819 41.0905 58.1984 41.0813C58.3149 41.0722 58.4304 41.0849 58.538 41.1188C58.6456 41.1527 58.7431 41.207 58.8247 41.2786C58.9912 41.4194 59.0859 41.6203 59.088 41.8374C59.09 42.0545 58.9994 42.27 58.8358 42.4367C58.0246 43.2449 57.2703 44.1003 56.5782 44.9967C56.5099 45.1545 56.3914 45.292 56.2395 45.3895ZM137.438 10.0527C137.324 10.1008 137.202 10.1279 137.079 10.1323C136.957 10.1366 136.837 10.1182 136.726 10.0781C135.71 9.69903 134.65 9.41283 133.562 9.22324C133.449 9.20351 133.344 9.16299 133.251 9.10399C133.159 9.04499 133.081 8.96866 133.022 8.87937C132.964 8.79008 132.926 8.68956 132.91 8.58357C132.895 8.47758 132.902 8.36819 132.932 8.26164C132.962 8.15508 133.013 8.05347 133.084 7.96258C133.154 7.87169 133.242 7.79331 133.343 7.73191C133.443 7.67052 133.554 7.62731 133.67 7.60476C133.785 7.58222 133.902 7.58076 134.015 7.60049C135.21 7.80578 136.372 8.11838 137.487 8.53403C137.594 8.56976 137.69 8.62545 137.771 8.69791C137.852 8.77037 137.916 8.85815 137.958 8.9562C138 9.05425 138.02 9.16062 138.018 9.26918C138.015 9.37774 137.989 9.48634 137.942 9.58871C137.841 9.79444 137.66 9.96105 137.438 10.0527ZM84.5257 32.3911C84.4269 32.4602 84.3142 32.5088 84.1962 32.5333C83.0437 32.5706 81.8895 32.6628 80.7382 32.8096C80.5029 32.831 80.2745 32.768 80.1001 32.6335C79.9257 32.499 79.8185 32.3032 79.8007 32.0864C79.7923 31.8714 79.8757 31.6555 80.0328 31.4855C80.1899 31.3155 80.4081 31.205 80.6401 31.178C81.8459 31.0277 83.0544 30.9291 84.2491 30.8893C84.4838 30.8325 84.7262 30.8633 84.9228 30.975C85.1195 31.0868 85.2544 31.2703 85.2979 31.4852C85.3414 31.7001 85.2899 31.9288 85.1547 32.121C85.0195 32.3131 84.8117 32.453 84.577 32.5099L84.5257 32.3911ZM103.993 23.4623C103.824 23.5446 103.636 23.5773 103.455 23.5561C103.274 23.5348 103.109 23.4606 102.983 23.3438C102.857 23.227 102.777 23.0736 102.753 22.905C102.73 22.7364 102.764 22.5612 102.852 22.404C103.446 21.3688 104.102 20.3622 104.816 19.3894C104.954 19.2041 105.161 19.0718 105.392 19.0216C105.623 18.9714 105.859 19.0073 106.049 19.1216C106.145 19.1768 106.226 19.2504 106.287 19.3378C106.349 19.4252 106.391 19.5248 106.409 19.6304C106.427 19.7361 106.422 19.8457 106.393 19.9527C106.365 20.0597 106.314 20.1619 106.244 20.2532C105.585 21.1616 104.978 22.0998 104.427 23.0636C104.323 23.2441 104.158 23.39 103.96 23.4765L103.993 23.4623ZM30.5733 54.7201C30.4867 54.7743 30.392 54.8151 30.2931 54.841L29.9187 54.8792C28.8911 54.9798 27.8656 55.1283 26.8462 55.324C26.6138 55.3622 26.3813 55.3158 26.1977 55.1945C26.0141 55.0732 25.8938 54.8866 25.862 54.6739C25.848 54.5676 25.857 54.4582 25.8883 54.3519C25.9197 54.2456 25.9729 54.1446 26.0449 54.0546C26.1168 53.9647 26.2061 53.8875 26.3076 53.8275C26.4091 53.7676 26.5209 53.7261 26.6364 53.7053C27.649 53.5151 28.7366 53.363 29.8536 53.2334L30.2445 53.1881C30.4788 53.1665 30.7057 53.232 30.8753 53.3703C31.0449 53.5086 31.1434 53.7082 31.1491 53.9254C31.1483 54.0909 31.0925 54.256 30.9895 54.3982C30.8864 54.5404 30.7411 54.6528 30.5733 54.7201ZM14.3716 61.3411C14.2129 61.409 14.0398 61.4333 13.8737 61.411C13.7077 61.3886 13.556 61.3207 13.4378 61.2155C13.3532 61.1471 13.2856 61.0624 13.239 60.9664C13.1925 60.8705 13.168 60.7653 13.167 60.6572C13.1659 60.5491 13.1884 60.4403 13.233 60.3372C13.2777 60.2341 13.3435 60.1389 13.4267 60.0573C14.3036 59.1779 15.2684 58.3779 16.3059 57.6696C16.5024 57.5371 16.741 57.4774 16.971 57.5031C17.201 57.5289 17.4045 57.638 17.5382 57.8075C17.6619 57.9848 17.7041 58.2048 17.6561 58.4222C17.6081 58.6396 17.4735 58.8378 17.2801 58.976C16.3415 59.6027 15.4697 60.3156 14.6792 61.1027C14.5937 61.1997 14.489 61.2808 14.3716 61.3411ZM61.216 40.3877C61.0381 40.4674 60.8412 40.4916 60.6563 40.4566C60.4714 40.4216 60.3088 40.3293 60.1942 40.1942C60.0516 40.0338 59.9871 39.8226 60.0145 39.6063C60.0419 39.39 60.159 39.1861 60.3407 39.0386C61.2959 38.2786 62.296 37.5705 63.3352 36.9183C63.4341 36.8555 63.544 36.8109 63.6585 36.7872C63.773 36.7634 63.8897 36.761 64.0017 36.7799C64.1138 36.7989 64.2189 36.839 64.3109 36.8977C64.4029 36.9565 64.4799 37.0327 64.5373 37.122C64.5979 37.2105 64.6381 37.3106 64.6556 37.4166C64.6731 37.5226 64.6676 37.6323 64.6393 37.7395C64.6111 37.8467 64.5607 37.9493 64.491 38.0412C64.4213 38.1331 64.3338 38.2126 64.2334 38.2751C63.2545 38.885 62.3139 39.5498 61.4174 40.2655L61.216 40.3877ZM77.4295 33.2505L77.2483 33.3288C76.2192 33.5261 75.1536 33.7745 74.1071 34.0675L73.8599 34.1741C73.7464 34.2082 73.6283 34.2209 73.5128 34.2116C73.3974 34.2023 73.2869 34.1711 73.1881 34.1199C73.0893 34.0687 73.0042 33.9985 72.9379 33.9137C72.8716 33.8288 72.8255 33.7309 72.8025 33.6261C72.7555 33.4169 72.7991 33.1928 72.9241 33.0008C73.0491 32.8089 73.2457 32.6641 73.4726 32.5969L73.7362 32.4831C74.8385 32.1836 75.9371 31.921 76.9991 31.7095C77.2332 31.6668 77.4691 31.7102 77.6561 31.8304C77.8432 31.9506 77.9666 32.138 77.9998 32.3525C78.0243 32.5327 77.981 32.72 77.8773 32.8833C77.7736 33.0467 77.6156 33.1762 77.4295 33.2505ZM23.5476 56.0602C22.6229 56.3356 21.7133 56.6634 20.824 57.0416L20.1813 57.3189C19.9634 57.4049 19.7252 57.4152 19.5122 57.3478C19.2991 57.2804 19.1263 57.14 19.0268 56.9537C18.9841 56.8549 18.9638 56.7477 18.9669 56.6383C18.97 56.5288 18.9966 56.4195 19.045 56.3165C19.0934 56.2136 19.1627 56.1192 19.2489 56.0388C19.335 55.9584 19.4363 55.8936 19.5467 55.8483L20.0905 55.6137C21.0559 55.1991 22.045 54.843 23.0513 54.5475C23.2758 54.467 23.5187 54.4707 23.7267 54.5577C23.9348 54.6448 24.0908 54.808 24.1605 55.0116C24.2302 55.2152 24.2079 55.4424 24.0984 55.6433C23.989 55.8442 23.8014 56.0023 23.5769 56.0828L23.5476 56.0602ZM70.5614 35.2274C69.9681 35.4834 69.3749 35.7394 68.7981 35.9883L67.3479 36.614C67.244 36.6713 67.13 36.7083 67.0132 36.7226C66.8964 36.737 66.7795 36.7284 66.6701 36.6974C66.5608 36.6664 66.4615 36.6137 66.3787 36.5428C66.296 36.4718 66.2316 36.3842 66.1898 36.2856C66.1395 36.1939 66.11 36.0923 66.103 35.9869C66.096 35.8815 66.1116 35.7742 66.1489 35.6713C66.1863 35.5684 66.2446 35.4718 66.3206 35.3872C66.3966 35.3026 66.4887 35.2316 66.5916 35.1783C67.1189 34.9508 67.6792 34.709 68.2395 34.4673L70.0028 33.7064C70.2213 33.6121 70.4646 33.5999 70.6793 33.6726C70.8939 33.7452 71.0622 33.8966 71.1472 34.0936C71.2322 34.2906 71.2269 34.517 71.1325 34.7229C71.0381 34.9289 70.8623 35.0976 70.6438 35.1919L70.5614 35.2274ZM130.655 8.87409C130.521 8.91083 130.382 8.91621 130.251 8.88972C129.118 8.88193 127.98 8.93751 126.844 9.05619C126.639 9.04334 126.451 8.96357 126.312 8.83074C126.174 8.6979 126.094 8.52042 126.086 8.32913C126.077 8.13784 126.142 7.94485 126.268 7.78372C126.394 7.6226 126.573 7.50351 126.775 7.44718C127.99 7.31441 129.208 7.26005 130.419 7.2845C130.657 7.23551 130.899 7.2754 131.092 7.39539C131.285 7.51537 131.412 7.70563 131.447 7.9243C131.482 8.14297 131.421 8.37215 131.277 8.56141C131.133 8.75067 130.919 8.88452 130.681 8.93351L130.655 8.87409ZM108.119 17.8936C107.963 17.962 107.792 17.9879 107.627 17.9682C107.462 17.9485 107.311 17.8841 107.191 17.7828C107.106 17.7146 107.037 17.6301 106.989 17.5343C106.941 17.4386 106.915 17.3334 106.911 17.2249C106.908 17.1165 106.928 17.0069 106.971 16.9025C107.013 16.7981 107.076 16.701 107.157 16.6169C107.997 15.7428 108.895 14.9194 109.847 14.1524C110.031 14.0135 110.261 13.9439 110.487 13.9585C110.713 13.9732 110.916 14.0711 111.054 14.2308C111.196 14.3913 111.261 14.6025 111.234 14.8188C111.206 15.035 111.089 15.239 110.907 15.3865C110.015 16.1074 109.174 16.8826 108.39 17.7062C108.311 17.7819 108.219 17.8453 108.119 17.8936ZM123.6 9.55721L123.419 9.63544L122.801 9.74351C121.873 9.94987 121.031 10.1723 120.086 10.4743C119.974 10.5118 119.856 10.5287 119.74 10.524C119.624 10.5192 119.512 10.493 119.41 10.4468C119.308 10.4006 119.219 10.3353 119.147 10.2547C119.076 10.1741 119.023 10.0798 118.992 9.97729C118.933 9.77187 118.965 9.5468 119.082 9.35111C119.199 9.15543 119.391 9.00499 119.616 8.9326C120.567 8.62487 121.53 8.36217 122.502 8.14555L123.18 7.99417C123.407 7.92155 123.65 7.93427 123.854 8.02954C124.059 8.1248 124.208 8.29482 124.269 8.50217C124.33 8.70953 124.297 8.93725 124.179 9.13522C124.061 9.3332 123.867 9.48522 123.639 9.55785L123.6 9.55721ZM113.559 13.4671C113.369 13.5316 113.167 13.5367 112.984 13.4817C112.801 13.4266 112.647 13.3145 112.548 13.1632C112.49 13.0737 112.452 12.9731 112.437 12.867C112.422 12.761 112.43 12.6516 112.46 12.5452C112.491 12.4388 112.543 12.3375 112.614 12.247C112.685 12.1565 112.774 12.0786 112.875 12.0179C113.893 11.3826 114.954 10.813 116.049 10.3135C116.275 10.1962 116.535 10.1636 116.773 10.2227C117.011 10.2817 117.207 10.4277 117.318 10.6289C117.363 10.7255 117.385 10.8308 117.385 10.9386C117.385 11.0465 117.362 11.1549 117.317 11.2576C117.273 11.3603 117.207 11.4553 117.125 11.5372C117.043 11.6191 116.945 11.6863 116.838 11.7349C115.786 12.21 114.765 12.7506 113.783 13.3527L113.559 13.4671Z" fill="white"/>
<path d="M142.823 39.0184C141.941 40.1268 143.369 41.5276 144.892 42.8701C151.432 48.6154 175.703 64.2243 179.854 65.0336L179.933 64.985L180.117 65.0018C180.195 64.9636 180.268 64.9181 180.337 64.8659C180.405 64.8349 180.469 64.7958 180.527 64.7494C180.721 64.589 180.876 64.3862 180.979 64.1567C181.083 63.9272 181.132 63.6771 181.124 63.4255C181.433 59.0214 175.221 22.7933 172.673 20.5622C172.554 20.4614 172.417 20.3834 172.27 20.3324C171.748 20.1547 170.286 19.6871 165.177 27.8742C164.479 26.268 163.517 24.7902 162.331 23.5021C162.128 23.3168 161.896 23.1663 161.643 23.0568C161.462 22.9792 161.267 22.9401 161.07 22.942C160.872 22.9438 160.678 22.9866 160.498 23.0675C159.227 23.8285 156.301 30.7581 154.041 36.5819C151.575 36.6023 144.557 36.8209 142.823 39.0184ZM146.124 41.4814C145.553 41.0051 145.026 40.4796 144.547 39.9111C146.065 38.8457 150.789 38.4329 154.205 38.4358C156.239 40.6795 168.122 53.755 174.932 60.6804C166.831 56.0708 151.763 46.435 146.124 41.4814ZM171.799 22.4257C173.494 26.0947 178.248 50.5355 179.274 60.0692C177.164 56.2212 172.719 48.9022 163.636 34.6885C164.367 33.3694 165.145 32.0211 165.936 30.7298C166.067 30.6093 166.159 30.454 166.204 30.2823C167.747 27.4489 169.626 24.8111 171.799 22.4257ZM164.204 29.9291C163.438 31.2265 162.616 32.6451 161.698 34.2965C161.616 34.4444 161.576 34.6117 161.58 34.7807C161.585 34.9498 161.635 35.1144 161.725 35.2574C166.749 43.0231 174.135 54.7637 177.512 60.6332C171.32 54.4998 158.33 40.0861 155.722 37.3704C157.247 33.1098 159.116 28.9799 161.31 25.0215C162.539 26.4868 163.516 28.145 164.204 29.9291Z" fill="white"/>
<path d="M1021.91 173.123C1021.68 173.119 1021.46 173.027 1021.3 172.866C1021.14 172.705 1021.04 172.488 1021.03 172.258C1021.03 172.143 1021.04 172.028 1021.08 171.92C1021.12 171.812 1021.19 171.714 1021.26 171.63C1021.34 171.546 1021.44 171.479 1021.54 171.432C1021.64 171.385 1021.76 171.36 1021.87 171.358C1022.81 171.318 1023.75 171.212 1024.68 171.04L1025.2 170.934C1025.31 170.911 1025.43 170.91 1025.54 170.932C1025.66 170.955 1025.76 170.999 1025.86 171.063C1025.96 171.127 1026.04 171.209 1026.1 171.305C1026.17 171.401 1026.21 171.509 1026.23 171.623C1026.28 171.852 1026.23 172.088 1026.1 172.282C1025.97 172.476 1025.78 172.613 1025.55 172.664L1025.01 172.77C1023.99 172.962 1022.96 173.08 1021.92 173.123H1021.91ZM1018.4 172.805H1018.3C1017.08 172.522 1015.9 172.083 1014.79 171.499C1014.68 171.45 1014.59 171.378 1014.5 171.288C1014.42 171.199 1014.36 171.094 1014.32 170.979C1014.28 170.865 1014.27 170.743 1014.28 170.623C1014.29 170.502 1014.32 170.385 1014.38 170.278C1014.44 170.171 1014.51 170.078 1014.61 170.002C1014.7 169.927 1014.81 169.872 1014.93 169.841C1015.04 169.81 1015.16 169.803 1015.28 169.821C1015.4 169.839 1015.51 169.882 1015.62 169.946C1016.58 170.455 1017.6 170.834 1018.67 171.075C1018.9 171.101 1019.11 171.219 1019.26 171.403C1019.4 171.586 1019.47 171.821 1019.45 172.055C1019.42 172.289 1019.3 172.503 1019.12 172.651C1018.94 172.798 1018.7 172.866 1018.47 172.841L1018.4 172.805ZM1028.74 171.834C1028.51 171.867 1028.27 171.806 1028.08 171.663C1027.9 171.521 1027.77 171.31 1027.74 171.075C1027.71 170.841 1027.77 170.604 1027.91 170.415C1028.05 170.227 1028.26 170.102 1028.49 170.069C1029.62 169.734 1030.72 169.381 1031.75 168.975C1031.86 168.933 1031.97 168.912 1032.09 168.915C1032.2 168.918 1032.32 168.945 1032.42 168.992C1032.53 169.04 1032.62 169.108 1032.7 169.193C1032.78 169.278 1032.84 169.378 1032.88 169.487C1032.92 169.593 1032.94 169.707 1032.94 169.822C1032.93 169.937 1032.91 170.05 1032.86 170.155C1032.82 170.26 1032.75 170.355 1032.67 170.434C1032.59 170.514 1032.49 170.576 1032.38 170.617C1031.3 171.04 1030.16 171.428 1028.99 171.764L1028.74 171.834ZM1012.27 169.593C1012.16 169.595 1012.06 169.576 1011.96 169.536C1011.86 169.497 1011.77 169.438 1011.69 169.363C1010.78 168.563 1009.93 167.69 1009.15 166.751C1009 166.573 1008.93 166.342 1008.94 166.108C1008.96 165.875 1009.07 165.659 1009.25 165.506C1009.34 165.431 1009.44 165.374 1009.55 165.338C1009.66 165.302 1009.77 165.288 1009.89 165.297C1010.12 165.315 1010.33 165.426 1010.48 165.603C1011.2 166.478 1011.98 167.293 1012.83 168.039C1012.92 168.112 1012.99 168.203 1013.05 168.306C1013.1 168.409 1013.13 168.522 1013.14 168.638C1013.15 168.754 1013.13 168.87 1013.1 168.98C1013.06 169.089 1013 169.19 1012.92 169.275C1012.85 169.37 1012.75 169.448 1012.65 169.503C1012.54 169.558 1012.42 169.589 1012.31 169.593H1012.27ZM1035.28 169.31C1035.11 169.307 1034.95 169.259 1034.81 169.172C1034.68 169.085 1034.56 168.962 1034.49 168.816C1034.44 168.712 1034.41 168.598 1034.4 168.482C1034.39 168.367 1034.41 168.25 1034.44 168.14C1034.48 168.031 1034.54 167.929 1034.62 167.842C1034.69 167.755 1034.79 167.684 1034.89 167.633C1035.91 167.131 1036.9 166.571 1037.85 165.956C1037.95 165.886 1038.06 165.837 1038.17 165.811C1038.29 165.785 1038.41 165.783 1038.53 165.806C1038.64 165.828 1038.75 165.874 1038.85 165.941C1038.95 166.008 1039.04 166.095 1039.1 166.195C1039.16 166.296 1039.21 166.409 1039.23 166.527C1039.25 166.645 1039.24 166.766 1039.21 166.883C1039.19 166.999 1039.13 167.109 1039.06 167.204C1038.99 167.3 1038.9 167.38 1038.8 167.439C1037.8 168.075 1036.75 168.675 1035.66 169.204C1035.55 169.26 1035.43 169.296 1035.31 169.31H1035.28ZM1070.86 166.133L1068.57 166.045H1067.3C1067.07 166.022 1066.86 165.91 1066.71 165.732C1066.56 165.555 1066.48 165.325 1066.5 165.092C1066.53 164.861 1066.64 164.649 1066.81 164.498C1066.99 164.347 1067.21 164.269 1067.44 164.28H1068.67L1070.88 164.368C1071.11 164.368 1071.33 164.461 1071.5 164.626C1071.66 164.792 1071.76 165.016 1071.76 165.25C1071.75 165.486 1071.65 165.711 1071.49 165.876C1071.32 166.041 1071.1 166.133 1070.86 166.133ZM1074.37 166.027C1074.15 166.028 1073.94 165.944 1073.78 165.793C1073.62 165.642 1073.52 165.435 1073.51 165.215C1073.5 165.099 1073.51 164.982 1073.55 164.872C1073.58 164.761 1073.64 164.658 1073.71 164.57C1073.79 164.481 1073.88 164.408 1073.98 164.355C1074.09 164.303 1074.2 164.271 1074.31 164.262C1075.47 164.262 1076.61 164.068 1077.71 163.891C1077.94 163.86 1078.18 163.92 1078.37 164.058C1078.56 164.196 1078.69 164.401 1078.73 164.633C1078.76 164.864 1078.7 165.098 1078.56 165.285C1078.42 165.473 1078.22 165.6 1077.99 165.639C1076.84 165.815 1075.63 165.956 1074.49 166.027H1074.37ZM1063.85 165.533H1063.68C1062.49 165.339 1061.31 165.109 1060.17 164.827C1059.94 164.773 1059.74 164.628 1059.61 164.425C1059.49 164.221 1059.45 163.975 1059.5 163.741C1059.55 163.507 1059.7 163.304 1059.9 163.177C1060.1 163.049 1060.34 163.008 1060.58 163.062C1061.66 163.326 1062.8 163.556 1063.94 163.732C1064.17 163.749 1064.39 163.857 1064.54 164.035C1064.69 164.212 1064.77 164.443 1064.76 164.677C1064.74 164.911 1064.63 165.129 1064.46 165.283C1064.28 165.437 1064.05 165.514 1063.82 165.498L1063.85 165.533ZM1041.25 165.533C1041.12 165.534 1040.99 165.507 1040.87 165.452C1040.75 165.397 1040.65 165.316 1040.57 165.215C1040.49 165.127 1040.44 165.024 1040.4 164.913C1040.37 164.803 1040.36 164.686 1040.37 164.571C1040.38 164.456 1040.41 164.344 1040.47 164.243C1040.52 164.141 1040.6 164.051 1040.69 163.98C1041.57 163.258 1042.4 162.479 1043.18 161.649C1043.26 161.567 1043.35 161.502 1043.46 161.457C1043.56 161.413 1043.68 161.39 1043.79 161.39C1043.91 161.39 1044.02 161.413 1044.12 161.457C1044.23 161.502 1044.32 161.567 1044.4 161.649C1044.49 161.732 1044.55 161.829 1044.6 161.937C1044.64 162.044 1044.66 162.16 1044.66 162.276C1044.66 162.393 1044.64 162.508 1044.6 162.616C1044.55 162.723 1044.49 162.821 1044.4 162.903C1043.58 163.785 1042.69 164.61 1041.76 165.374C1041.6 165.487 1041.41 165.537 1041.22 165.515L1041.25 165.533ZM1081.23 164.95C1081.04 164.949 1080.85 164.883 1080.69 164.762C1080.54 164.64 1080.43 164.471 1080.38 164.28C1080.35 164.167 1080.34 164.05 1080.36 163.935C1080.37 163.82 1080.41 163.709 1080.47 163.609C1080.53 163.509 1080.61 163.422 1080.7 163.352C1080.79 163.282 1080.89 163.232 1081.01 163.203C1082.11 162.92 1083.19 162.572 1084.25 162.161C1084.36 162.109 1084.48 162.08 1084.6 162.076C1084.72 162.073 1084.84 162.094 1084.95 162.139C1085.06 162.184 1085.16 162.251 1085.25 162.337C1085.33 162.424 1085.4 162.527 1085.44 162.64C1085.48 162.753 1085.5 162.874 1085.5 162.996C1085.49 163.117 1085.46 163.236 1085.41 163.345C1085.36 163.454 1085.28 163.551 1085.19 163.63C1085.1 163.709 1084.99 163.768 1084.88 163.803C1083.73 164.242 1082.56 164.614 1081.37 164.915L1081.23 164.95ZM1007.78 164.244C1007.64 164.247 1007.5 164.214 1007.38 164.149C1007.25 164.085 1007.15 163.99 1007.07 163.874C1006.4 162.903 1005.75 161.897 1005.14 160.873C1005.08 160.775 1005.03 160.665 1005.01 160.55C1004.99 160.435 1004.99 160.317 1005.02 160.203C1005.05 160.09 1005.1 159.982 1005.16 159.888C1005.23 159.794 1005.32 159.714 1005.42 159.655C1005.62 159.535 1005.85 159.497 1006.08 159.55C1006.31 159.603 1006.5 159.742 1006.63 159.937C1007.24 160.926 1007.85 161.914 1008.5 162.867C1008.57 162.961 1008.62 163.067 1008.64 163.179C1008.67 163.291 1008.67 163.408 1008.65 163.521C1008.63 163.634 1008.59 163.743 1008.53 163.84C1008.47 163.937 1008.39 164.02 1008.29 164.085C1008.14 164.188 1007.97 164.243 1007.78 164.244ZM1057.07 163.874C1056.97 163.89 1056.87 163.89 1056.77 163.874C1055.64 163.485 1054.53 163.031 1053.45 162.514C1053.33 162.47 1053.23 162.403 1053.15 162.317C1053.06 162.232 1052.99 162.129 1052.95 162.017C1052.91 161.904 1052.89 161.783 1052.89 161.662C1052.89 161.541 1052.92 161.422 1052.98 161.312C1053.03 161.203 1053.1 161.106 1053.19 161.026C1053.28 160.947 1053.39 160.887 1053.5 160.851C1053.62 160.815 1053.74 160.802 1053.86 160.815C1053.98 160.828 1054.09 160.866 1054.2 160.926C1055.23 161.408 1056.28 161.838 1057.35 162.214C1057.57 162.291 1057.75 162.45 1057.85 162.658C1057.95 162.866 1057.97 163.106 1057.9 163.326C1057.83 163.499 1057.7 163.645 1057.55 163.744C1057.39 163.842 1057.2 163.887 1057.02 163.874H1057.07ZM1087.75 162.373C1087.6 162.37 1087.44 162.326 1087.31 162.246C1087.17 162.165 1087.06 162.051 1086.98 161.914C1086.93 161.811 1086.89 161.698 1086.88 161.582C1086.87 161.466 1086.88 161.348 1086.92 161.237C1086.95 161.125 1087.01 161.021 1087.08 160.932C1087.15 160.842 1087.25 160.768 1087.35 160.714C1088.34 160.194 1089.3 159.604 1090.21 158.949C1090.3 158.88 1090.4 158.831 1090.52 158.804C1090.63 158.777 1090.74 158.772 1090.86 158.79C1090.97 158.808 1091.08 158.848 1091.18 158.909C1091.28 158.97 1091.36 159.049 1091.43 159.143C1091.5 159.237 1091.55 159.343 1091.58 159.456C1091.6 159.569 1091.61 159.686 1091.59 159.801C1091.57 159.916 1091.53 160.026 1091.47 160.125C1091.41 160.224 1091.33 160.31 1091.24 160.379C1090.26 161.093 1089.24 161.742 1088.17 162.32C1088.02 162.382 1087.86 162.4 1087.7 162.373H1087.75ZM1050.71 160.838C1050.55 160.842 1050.38 160.8 1050.24 160.714C1049.3 160.108 1048.4 159.442 1047.54 158.719C1047.28 159.161 1047 159.584 1046.7 160.026C1046.57 160.213 1046.36 160.341 1046.14 160.38C1045.91 160.42 1045.68 160.369 1045.49 160.237C1045.3 160.102 1045.17 159.897 1045.13 159.666C1045.08 159.435 1045.13 159.197 1045.26 159.002C1045.93 158.084 1046.52 157.109 1047.01 156.089C1047.06 155.976 1047.13 155.874 1047.21 155.788C1047.3 155.702 1047.4 155.635 1047.51 155.591C1047.62 155.546 1047.74 155.526 1047.86 155.53C1047.98 155.534 1048.1 155.563 1048.21 155.616C1048.32 155.668 1048.41 155.742 1048.49 155.834C1048.57 155.925 1048.63 156.032 1048.67 156.148C1048.7 156.263 1048.71 156.385 1048.7 156.506C1048.69 156.626 1048.65 156.743 1048.59 156.848L1048.45 157.148C1049.31 157.885 1050.21 158.557 1051.17 159.161C1051.36 159.287 1051.5 159.487 1051.55 159.715C1051.6 159.943 1051.56 160.182 1051.43 160.379C1051.36 160.509 1051.25 160.62 1051.13 160.7C1051 160.78 1050.86 160.827 1050.71 160.838ZM1004 158.278C1003.85 158.277 1003.7 158.238 1003.57 158.164C1003.44 158.09 1003.33 157.983 1003.25 157.854C1002.63 156.848 1002.02 155.842 1001.39 154.889C1001.26 154.692 1001.22 154.453 1001.26 154.223C1001.31 153.992 1001.45 153.791 1001.64 153.662C1001.84 153.533 1002.08 153.488 1002.3 153.536C1002.53 153.584 1002.73 153.721 1002.86 153.918C1003.49 154.889 1004.12 155.913 1004.74 156.937C1004.8 157.035 1004.84 157.145 1004.86 157.259C1004.88 157.374 1004.87 157.491 1004.85 157.604C1004.82 157.717 1004.77 157.824 1004.71 157.919C1004.64 158.013 1004.55 158.093 1004.46 158.154C1004.32 158.234 1004.16 158.276 1004 158.278ZM1093.36 158.278C1093.12 158.277 1092.9 158.182 1092.73 158.013C1092.65 157.931 1092.58 157.834 1092.54 157.726C1092.49 157.619 1092.47 157.503 1092.47 157.387C1092.47 157.27 1092.49 157.155 1092.54 157.047C1092.58 156.94 1092.65 156.842 1092.73 156.76C1093.53 155.974 1094.27 155.131 1094.95 154.236C1095.02 154.141 1095.11 154.061 1095.21 154.001C1095.3 153.94 1095.41 153.901 1095.53 153.884C1095.64 153.868 1095.76 153.875 1095.87 153.905C1095.98 153.935 1096.09 153.987 1096.18 154.059C1096.36 154.203 1096.48 154.411 1096.51 154.642C1096.55 154.872 1096.49 155.106 1096.36 155.295C1095.62 156.265 1094.81 157.179 1093.94 158.031C1093.86 158.1 1093.77 158.153 1093.67 158.187C1093.57 158.22 1093.46 158.233 1093.36 158.225V158.278ZM1115.58 158.278H1113.82C1113.59 158.26 1113.38 158.152 1113.23 157.977C1113.08 157.802 1113 157.574 1113.02 157.343C1113.02 157.225 1113.05 157.109 1113.09 157.002C1113.14 156.895 1113.21 156.8 1113.3 156.722C1113.39 156.644 1113.49 156.585 1113.6 156.549C1113.71 156.513 1113.83 156.501 1113.95 156.513C1115.07 156.584 1116.2 156.584 1117.33 156.513C1117.44 156.505 1117.56 156.52 1117.67 156.556C1117.78 156.593 1117.88 156.651 1117.97 156.728C1118.05 156.804 1118.12 156.897 1118.18 157.001C1118.23 157.105 1118.26 157.218 1118.27 157.334C1118.27 157.45 1118.26 157.566 1118.22 157.676C1118.19 157.786 1118.13 157.888 1118.05 157.976C1117.98 158.064 1117.88 158.135 1117.78 158.187C1117.68 158.239 1117.57 158.27 1117.45 158.278C1116.84 158.172 1116.21 158.19 1115.58 158.19V158.278ZM1110.32 157.766H1110.14C1108.96 157.526 1107.78 157.201 1106.64 156.795C1106.53 156.758 1106.43 156.699 1106.34 156.621C1106.26 156.543 1106.19 156.449 1106.14 156.343C1106.09 156.238 1106.06 156.123 1106.06 156.007C1106.05 155.89 1106.07 155.774 1106.11 155.666C1106.15 155.556 1106.21 155.455 1106.28 155.368C1106.36 155.281 1106.45 155.211 1106.55 155.161C1106.66 155.112 1106.77 155.084 1106.88 155.08C1107 155.075 1107.11 155.094 1107.22 155.136C1108.29 155.504 1109.37 155.804 1110.48 156.036C1110.59 156.059 1110.7 156.105 1110.79 156.17C1110.89 156.235 1110.97 156.318 1111.03 156.414C1111.1 156.511 1111.14 156.619 1111.16 156.733C1111.18 156.847 1111.18 156.964 1111.16 157.078C1111.11 157.242 1111.01 157.387 1110.87 157.494C1110.74 157.601 1110.58 157.665 1110.41 157.678L1110.32 157.766ZM1120.83 157.766C1120.6 157.79 1120.37 157.719 1120.19 157.57C1120.01 157.421 1119.89 157.206 1119.87 156.972C1119.85 156.738 1119.92 156.504 1120.06 156.322C1120.21 156.14 1120.42 156.024 1120.66 156.001C1121.77 155.769 1122.86 155.468 1123.93 155.101C1124.15 155.028 1124.39 155.047 1124.6 155.153C1124.81 155.259 1124.97 155.443 1125.04 155.666C1125.11 155.886 1125.09 156.126 1124.99 156.334C1124.89 156.542 1124.71 156.701 1124.49 156.778C1123.35 157.166 1122.18 157.484 1120.99 157.731L1120.83 157.766ZM1045.4 156.354C1045.28 156.354 1045.15 156.326 1045.03 156.271C1044.92 156.216 1044.82 156.136 1044.74 156.036C1043.95 155.101 1043.24 154.097 1042.63 153.036C1042.55 152.836 1042.53 152.611 1042.6 152.403C1042.66 152.195 1042.81 152.019 1042.99 151.909C1043.18 151.799 1043.4 151.763 1043.61 151.808C1043.83 151.853 1044.01 151.976 1044.14 152.153C1044.71 153.119 1045.36 154.039 1046.07 154.907C1046.15 154.987 1046.22 155.083 1046.26 155.189C1046.3 155.295 1046.33 155.409 1046.33 155.524C1046.33 155.639 1046.3 155.753 1046.26 155.859C1046.22 155.966 1046.15 156.062 1046.07 156.142C1045.87 156.257 1045.64 156.295 1045.42 156.248L1045.4 156.354ZM1127.46 155.524C1127.34 155.549 1127.22 155.55 1127.11 155.528C1126.99 155.506 1126.88 155.462 1126.78 155.397C1126.58 155.266 1126.44 155.061 1126.4 154.827C1126.35 154.593 1126.39 154.349 1126.52 154.149C1126.65 153.949 1126.86 153.808 1127.09 153.759C1128.11 153.271 1129.11 152.722 1130.07 152.118C1130.16 152.057 1130.27 152.016 1130.39 151.998C1130.5 151.981 1130.62 151.986 1130.73 152.014C1130.85 152.042 1130.95 152.092 1131.04 152.161C1131.14 152.23 1131.22 152.318 1131.28 152.418C1131.34 152.515 1131.38 152.623 1131.4 152.736C1131.41 152.849 1131.41 152.965 1131.38 153.077C1131.36 153.189 1131.31 153.294 1131.24 153.387C1131.18 153.48 1131.09 153.558 1130.99 153.618C1129.97 154.26 1128.92 154.85 1127.84 155.383C1127.72 155.417 1127.6 155.429 1127.47 155.418L1127.46 155.524ZM1103.8 155.524C1103.67 155.52 1103.54 155.49 1103.42 155.436C1102.34 154.911 1101.3 154.322 1100.3 153.671C1100.11 153.542 1099.97 153.341 1099.93 153.113C1099.88 152.885 1099.93 152.648 1100.05 152.453C1100.18 152.258 1100.39 152.123 1100.62 152.077C1100.84 152.031 1101.08 152.077 1101.28 152.206C1102.21 152.865 1103.19 153.454 1104.2 153.971C1104.41 154.084 1104.56 154.271 1104.63 154.494C1104.71 154.717 1104.69 154.96 1104.59 155.171C1104.48 155.258 1104.36 155.32 1104.23 155.35C1104.09 155.381 1103.95 155.38 1103.82 155.348L1103.8 155.524ZM1048.94 154.024H1048.73C1048.62 153.995 1048.52 153.944 1048.42 153.875C1048.33 153.805 1048.25 153.718 1048.19 153.618C1048.14 153.518 1048.1 153.407 1048.08 153.292C1048.07 153.177 1048.07 153.06 1048.1 152.947C1048.38 151.875 1048.52 150.772 1048.52 149.664C1048.53 149.434 1048.63 149.217 1048.79 149.056C1048.95 148.895 1049.17 148.803 1049.4 148.799C1049.51 148.799 1049.63 148.822 1049.73 148.867C1049.84 148.911 1049.93 148.976 1050.01 149.059C1050.09 149.141 1050.15 149.238 1050.2 149.345C1050.24 149.452 1050.26 149.567 1050.26 149.682C1050.24 150.932 1050.09 152.176 1049.78 153.389C1049.73 153.57 1049.62 153.73 1049.47 153.844C1049.31 153.958 1049.13 154.021 1048.94 154.024ZM1097.56 152.612C1097.42 152.61 1097.27 152.574 1097.14 152.506C1096.94 152.394 1096.79 152.205 1096.72 151.981C1096.65 151.757 1096.67 151.515 1096.78 151.306C1096.78 151.147 1096.95 150.988 1097.02 150.829C1096.27 150.141 1095.53 149.435 1094.85 148.676C1094.77 148.595 1094.7 148.499 1094.66 148.393C1094.61 148.287 1094.59 148.173 1094.59 148.058C1094.59 147.943 1094.61 147.829 1094.66 147.723C1094.7 147.617 1094.77 147.52 1094.85 147.44C1094.93 147.357 1095.03 147.292 1095.13 147.247C1095.24 147.202 1095.35 147.179 1095.47 147.179C1095.59 147.179 1095.7 147.202 1095.81 147.247C1095.91 147.292 1096.01 147.357 1096.09 147.44C1096.62 148.005 1097.18 148.57 1097.74 149.099C1097.86 148.781 1097.97 148.481 1098.07 148.164C1098.15 147.945 1098.31 147.764 1098.51 147.662C1098.72 147.56 1098.96 147.543 1099.18 147.616C1099.29 147.65 1099.39 147.706 1099.48 147.781C1099.57 147.856 1099.64 147.948 1099.69 148.052C1099.74 148.156 1099.77 148.269 1099.78 148.386C1099.79 148.502 1099.77 148.619 1099.74 148.729C1099.35 149.89 1098.87 151.017 1098.3 152.1C1098.24 152.246 1098.13 152.372 1098 152.465C1097.87 152.559 1097.72 152.615 1097.56 152.63V152.612ZM1000.09 152.382C999.96 152.386 999.829 152.357 999.71 152.299C999.591 152.241 999.488 152.154 999.409 152.047C998.717 151.158 997.955 150.326 997.132 149.558C996.97 149.39 996.88 149.165 996.88 148.932C996.88 148.698 996.97 148.473 997.132 148.305C997.213 148.222 997.31 148.157 997.417 148.112C997.523 148.067 997.638 148.044 997.754 148.044C997.869 148.044 997.984 148.067 998.091 148.112C998.197 148.157 998.294 148.222 998.376 148.305C999.247 149.126 1000.05 150.017 1000.78 150.97C1000.92 151.156 1000.99 151.391 1000.96 151.626C1000.93 151.86 1000.82 152.075 1000.64 152.224C1000.48 152.342 1000.29 152.404 1000.09 152.4V152.382ZM1133.45 151.712C1133.31 151.71 1133.18 151.678 1133.06 151.617C1132.94 151.555 1132.83 151.467 1132.75 151.359C1132.68 151.266 1132.63 151.16 1132.6 151.048C1132.57 150.936 1132.56 150.819 1132.58 150.704C1132.6 150.59 1132.64 150.479 1132.69 150.379C1132.75 150.28 1132.83 150.193 1132.92 150.123C1133.8 149.452 1134.67 148.711 1135.55 147.917C1135.63 147.834 1135.73 147.768 1135.84 147.723C1135.94 147.679 1136.06 147.655 1136.17 147.655C1136.29 147.655 1136.4 147.679 1136.51 147.723C1136.62 147.768 1136.71 147.834 1136.79 147.917C1136.88 147.999 1136.94 148.096 1136.99 148.204C1137.03 148.311 1137.05 148.427 1137.05 148.543C1137.05 148.66 1137.03 148.775 1136.99 148.883C1136.94 148.99 1136.88 149.088 1136.79 149.17C1135.9 149.982 1135.04 150.758 1134.04 151.465C1133.88 151.617 1133.67 151.711 1133.45 151.729V151.712ZM978.874 150.688C978.727 150.689 978.583 150.653 978.454 150.582C978.325 150.511 978.216 150.407 978.138 150.282C978.013 150.085 977.971 149.846 978.02 149.618C978.069 149.39 978.206 149.191 978.401 149.064C979.33 148.464 980.241 147.934 981.117 147.458C981.219 147.402 981.331 147.368 981.447 147.357C981.562 147.346 981.679 147.358 981.79 147.392C981.901 147.427 982.004 147.483 982.093 147.558C982.182 147.633 982.255 147.725 982.309 147.828C982.363 147.93 982.397 148.042 982.408 148.157C982.419 148.272 982.407 148.388 982.372 148.498C982.338 148.608 982.282 148.71 982.208 148.798C982.134 148.887 982.043 148.959 981.941 149.011C981.1 149.47 980.188 149.982 979.347 150.547C979.205 150.636 979.042 150.685 978.874 150.688ZM1041.95 150.158C1041.77 150.16 1041.59 150.102 1041.44 149.994C1041.29 149.886 1041.18 149.733 1041.13 149.558C1040.72 148.373 1040.46 147.139 1040.37 145.887C1040.37 145.771 1040.38 145.654 1040.42 145.545C1040.46 145.435 1040.52 145.334 1040.59 145.247C1040.67 145.16 1040.76 145.089 1040.87 145.038C1040.97 144.987 1041.08 144.958 1041.2 144.951C1041.31 144.941 1041.43 144.956 1041.54 144.992C1041.65 145.029 1041.75 145.088 1041.84 145.166C1041.92 145.243 1042 145.338 1042.04 145.444C1042.09 145.549 1042.12 145.664 1042.13 145.781C1042.22 146.883 1042.46 147.968 1042.83 149.011C1042.9 149.231 1042.88 149.471 1042.78 149.679C1042.68 149.887 1042.5 150.047 1042.28 150.123C1042.18 150.159 1042.06 150.171 1041.95 150.158ZM1090.82 140.309C1090.64 140.31 1090.46 140.253 1090.31 140.145C1090.16 140.037 1090.05 139.884 1089.99 139.709C1089.58 138.524 1089.33 137.289 1089.24 136.037C1089.23 135.915 1089.25 135.793 1089.29 135.679C1089.34 135.564 1089.4 135.46 1089.48 135.372C1089.57 135.284 1089.67 135.215 1089.78 135.168C1089.89 135.121 1090.01 135.099 1090.13 135.101C1090.25 135.092 1090.36 135.105 1090.47 135.141C1090.58 135.177 1090.68 135.235 1090.77 135.31C1090.86 135.386 1090.93 135.478 1090.98 135.582C1091.03 135.685 1091.06 135.798 1091.06 135.913C1091.14 137.014 1091.36 138.099 1091.71 139.144C1091.75 139.253 1091.77 139.368 1091.76 139.483C1091.75 139.599 1091.72 139.712 1091.67 139.815C1091.62 139.919 1091.55 140.011 1091.47 140.087C1091.38 140.163 1091.28 140.22 1091.17 140.256C1091.06 140.3 1090.94 140.318 1090.82 140.309ZM994.889 147.758C994.757 147.791 994.618 147.791 994.486 147.758C993.544 147.258 992.525 146.924 991.472 146.769C991.242 146.738 991.034 146.617 990.893 146.432C990.752 146.247 990.689 146.012 990.719 145.781C990.754 145.548 990.878 145.338 991.064 145.196C991.251 145.054 991.486 144.991 991.718 145.022C992.941 145.213 994.125 145.607 995.222 146.187C995.428 146.292 995.585 146.476 995.657 146.698C995.729 146.92 995.711 147.161 995.607 147.369C995.529 147.489 995.422 147.587 995.297 147.655C995.171 147.723 995.031 147.758 994.889 147.758ZM984.727 147.758C984.548 147.753 984.374 147.695 984.228 147.591C984.081 147.488 983.968 147.343 983.903 147.175C983.823 146.957 983.832 146.717 983.927 146.505C984.022 146.294 984.196 146.129 984.411 146.045C985.546 145.61 986.719 145.285 987.915 145.075C988.148 145.04 988.384 145.099 988.573 145.24C988.762 145.38 988.888 145.591 988.923 145.825C988.958 146.059 988.899 146.297 988.759 146.488C988.62 146.678 988.411 146.805 988.178 146.84C987.098 146.994 986.036 147.254 985.007 147.616C984.917 147.65 984.822 147.668 984.727 147.669V147.758ZM1048.94 147.14C1048.74 147.147 1048.54 147.079 1048.38 146.949C1048.22 146.82 1048.12 146.636 1048.08 146.434C1047.78 145.413 1047.29 144.461 1046.63 143.627C1046.56 143.531 1046.5 143.421 1046.47 143.305C1046.44 143.188 1046.44 143.066 1046.45 142.946C1046.47 142.827 1046.51 142.711 1046.57 142.607C1046.63 142.503 1046.71 142.412 1046.8 142.339C1046.9 142.266 1047.01 142.212 1047.12 142.182C1047.24 142.151 1047.36 142.144 1047.48 142.16C1047.6 142.176 1047.71 142.216 1047.82 142.277C1047.92 142.338 1048.01 142.419 1048.08 142.515C1048.88 143.527 1049.47 144.684 1049.84 145.922C1049.9 146.144 1049.88 146.384 1049.77 146.589C1049.66 146.793 1049.48 146.947 1049.26 147.016C1049.16 147.055 1049.05 147.067 1048.94 147.052V147.14ZM1138.65 147.14C1138.43 147.139 1138.22 147.05 1138.06 146.893C1137.97 146.811 1137.91 146.713 1137.86 146.606C1137.82 146.498 1137.8 146.383 1137.8 146.266C1137.8 146.15 1137.82 146.034 1137.86 145.927C1137.91 145.819 1137.97 145.722 1138.06 145.639C1138.84 144.828 1139.6 143.874 1140.33 143.045C1140.48 142.862 1140.7 142.747 1140.93 142.723C1141.16 142.7 1141.4 142.771 1141.58 142.921C1141.76 143.071 1141.87 143.287 1141.9 143.522C1141.92 143.757 1141.85 143.992 1141.7 144.174C1140.93 145.092 1140.14 145.94 1139.32 146.857C1139.22 146.919 1139.11 146.959 1139 146.977C1138.88 146.996 1138.76 146.991 1138.65 146.963V147.14ZM1093.25 146.257C1093.12 146.259 1092.98 146.227 1092.85 146.166C1092.73 146.105 1092.62 146.015 1092.54 145.904C1091.82 144.93 1091.16 143.91 1090.57 142.851C1090.47 142.644 1090.44 142.403 1090.51 142.179C1090.57 141.955 1090.72 141.765 1090.92 141.65C1091.13 141.536 1091.36 141.507 1091.59 141.57C1091.81 141.633 1092 141.782 1092.11 141.986C1092.67 142.984 1093.28 143.945 1093.95 144.863C1094.09 145.054 1094.14 145.289 1094.11 145.52C1094.07 145.75 1093.95 145.958 1093.76 146.098C1093.61 146.201 1093.44 146.256 1093.25 146.257ZM1099.74 145.957H1099.61C1099.39 145.914 1099.19 145.786 1099.06 145.599C1098.92 145.411 1098.86 145.18 1098.9 144.951C1099 144.25 1099.05 143.542 1099.05 142.833C1099.05 142.421 1099.05 142.015 1099.05 141.615C1099.04 141.499 1099.06 141.382 1099.09 141.272C1099.13 141.161 1099.19 141.059 1099.26 140.97C1099.34 140.882 1099.43 140.809 1099.53 140.756C1099.63 140.703 1099.74 140.671 1099.86 140.662C1099.97 140.652 1100.09 140.666 1100.2 140.702C1100.31 140.738 1100.41 140.795 1100.5 140.87C1100.59 140.946 1100.66 141.038 1100.71 141.141C1100.76 141.245 1100.8 141.358 1100.81 141.474C1100.83 141.926 1100.83 142.38 1100.81 142.833C1100.81 143.624 1100.75 144.414 1100.65 145.198C1100.61 145.415 1100.5 145.611 1100.33 145.751C1100.17 145.891 1099.95 145.964 1099.74 145.957ZM1041.74 143.257C1041.61 143.261 1041.49 143.23 1041.37 143.168C1041.27 143.121 1041.17 143.053 1041.1 142.968C1041.02 142.883 1040.96 142.784 1040.92 142.675C1040.88 142.567 1040.86 142.451 1040.87 142.336C1040.87 142.22 1040.9 142.107 1040.95 142.003C1041.23 141.244 1041.8 140.623 1042.52 140.271C1043.25 139.919 1044.08 139.863 1044.84 140.115C1044.95 140.148 1045.06 140.205 1045.14 140.279C1045.23 140.354 1045.31 140.446 1045.36 140.55C1045.41 140.654 1045.44 140.768 1045.45 140.884C1045.46 141 1045.44 141.117 1045.4 141.227C1045.37 141.336 1045.31 141.438 1045.24 141.525C1045.17 141.613 1045.08 141.685 1044.98 141.738C1044.88 141.79 1044.77 141.822 1044.65 141.831C1044.54 141.841 1044.42 141.827 1044.32 141.791C1043.55 141.544 1042.95 141.791 1042.56 142.745C1042.49 142.899 1042.37 143.029 1042.23 143.12C1042.08 143.21 1041.91 143.258 1041.74 143.257ZM1090.92 133.76C1090.81 133.726 1090.7 133.666 1090.61 133.583C1090.45 133.415 1090.36 133.191 1090.36 132.957C1090.36 132.723 1090.45 132.498 1090.61 132.33C1091.09 131.708 1091.79 131.292 1092.57 131.164C1093.34 131.037 1094.14 131.207 1094.8 131.642C1094.98 131.777 1095.11 131.978 1095.15 132.205C1095.19 132.432 1095.15 132.666 1095.02 132.86C1094.89 133.054 1094.69 133.189 1094.46 133.236C1094.23 133.282 1093.99 133.236 1093.8 133.107C1093.65 133.005 1093.48 132.933 1093.3 132.898C1093.12 132.862 1092.94 132.862 1092.76 132.898C1092.58 132.934 1092.41 133.006 1092.26 133.108C1092.11 133.211 1091.99 133.342 1091.89 133.495C1091.77 133.635 1091.62 133.736 1091.45 133.783C1091.27 133.831 1091.09 133.823 1090.92 133.76ZM1143.12 141.562C1142.97 141.545 1142.82 141.491 1142.7 141.403C1142.6 141.336 1142.52 141.251 1142.46 141.153C1142.4 141.054 1142.36 140.944 1142.34 140.829C1142.32 140.715 1142.32 140.597 1142.35 140.483C1142.37 140.37 1142.42 140.262 1142.49 140.167C1143.72 138.402 1144.35 137.29 1144.36 137.273C1144.42 137.17 1144.49 137.08 1144.58 137.007C1144.67 136.935 1144.78 136.881 1144.89 136.85C1145 136.818 1145.12 136.81 1145.23 136.825C1145.35 136.84 1145.46 136.878 1145.55 136.937C1145.76 137.052 1145.91 137.243 1145.97 137.468C1146.03 137.693 1146 137.934 1145.89 138.138C1145.89 138.138 1145.2 139.373 1143.93 141.191C1143.83 141.315 1143.71 141.413 1143.57 141.478C1143.43 141.542 1143.27 141.571 1143.12 141.562ZM1099.05 138.985C1098.88 138.984 1098.71 138.932 1098.57 138.834C1098.42 138.737 1098.31 138.599 1098.25 138.438C1097.88 137.435 1097.31 136.517 1096.58 135.737C1096.5 135.656 1096.44 135.56 1096.39 135.454C1096.35 135.348 1096.33 135.234 1096.33 135.119C1096.33 135.004 1096.35 134.89 1096.39 134.784C1096.44 134.678 1096.5 134.582 1096.58 134.501C1096.66 134.419 1096.76 134.353 1096.87 134.308C1096.97 134.263 1097.09 134.24 1097.2 134.24C1097.32 134.24 1097.43 134.263 1097.54 134.308C1097.65 134.353 1097.75 134.419 1097.83 134.501C1098.71 135.457 1099.4 136.57 1099.88 137.785C1099.96 138.003 1099.95 138.244 1099.86 138.458C1099.77 138.672 1099.6 138.842 1099.39 138.932C1099.28 138.968 1099.17 138.986 1099.05 138.985Z" fill="white"/>
<path d="M1158.2 147.28C1159.27 148.149 1160.66 146.771 1161.99 145.3C1167.7 138.983 1183.29 115.49 1184.14 111.455L1184.09 111.378L1184.11 111.198C1184.08 111.122 1184.03 111.05 1183.98 110.982C1183.95 110.916 1183.92 110.854 1183.87 110.797C1183.72 110.607 1183.52 110.454 1183.3 110.351C1183.08 110.248 1182.83 110.198 1182.59 110.203C1178.29 109.863 1142.82 115.586 1140.61 118.047C1140.51 118.162 1140.43 118.294 1140.38 118.437C1140.2 118.944 1139.72 120.364 1147.64 125.412C1146.06 126.077 1144.6 127.001 1143.33 128.144C1143.15 128.34 1143 128.565 1142.88 128.81C1142.81 128.986 1142.77 129.176 1142.76 129.368C1142.76 129.56 1142.8 129.75 1142.88 129.925C1143.6 131.169 1150.33 134.082 1155.98 136.335C1155.97 138.736 1156.08 145.572 1158.2 147.28ZM1160.65 144.088C1160.18 144.64 1159.66 145.149 1159.1 145.609C1158.08 144.122 1157.74 139.518 1157.8 136.192C1160.02 134.231 1172.96 122.778 1179.82 116.208C1175.2 124.055 1165.57 138.642 1160.65 144.088ZM1142.41 118.915C1146.02 117.297 1169.96 112.888 1179.28 111.975C1175.49 113.995 1168.28 118.257 1154.27 126.974C1152.99 126.251 1151.69 125.481 1150.44 124.699C1150.32 124.571 1150.17 124.479 1150.01 124.434C1147.26 122.906 1144.71 121.053 1142.41 118.915ZM1149.63 126.379C1150.89 127.136 1152.26 127.949 1153.86 128.857C1154 128.939 1154.17 128.98 1154.33 128.977C1154.5 128.974 1154.66 128.927 1154.8 128.84C1162.46 124.018 1174.03 116.931 1179.81 113.695C1173.73 119.67 1159.47 132.189 1156.78 134.705C1152.64 133.181 1148.63 131.324 1144.8 129.152C1146.25 127.969 1147.88 127.032 1149.63 126.379Z" fill="white"/>
<path d="M266.705 64H266.566C266.365 63.9841 266.173 63.9041 266.013 63.7696C265.852 63.635 265.729 63.4517 265.659 63.2415C265.659 63.1443 264.701 58.6322 263.708 53.206C260.501 52.3308 258.131 51.6695 258.061 51.5723C254.715 50.5804 254.105 50.0553 254 49.2773C253.997 49.0605 254.041 48.8459 254.129 48.6526C254.217 48.4593 254.346 48.2931 254.506 48.1687C256.248 47.0018 259.002 45.3487 262.122 43.6372C261.407 38.6778 261.058 34.613 261.738 34.0684C262.418 33.5239 265.851 36.305 269.424 39.7474C273.031 37.8026 276.116 36.3828 277.301 35.8577C277.485 35.7919 277.682 35.7844 277.87 35.8359C278.057 35.8874 278.229 35.9959 278.364 36.1494C279.009 36.9468 277.563 41.3617 275.698 46.0877C277.894 48.4605 279.602 50.4053 280.142 51.086C281.693 53.0309 282.442 54.3729 281.728 55.3259C281.013 56.2789 276.691 55.8899 271.986 54.9758C268.239 63.3971 267.333 64 266.705 64ZM265.555 53.5171C266.113 56.6484 266.635 59.3518 266.984 61.1021C268.146 58.986 269.211 56.8049 270.173 54.5674C268.605 54.2951 267.036 53.945 265.555 53.5171ZM272.77 53.0893C275.162 53.5992 277.586 53.8983 280.02 53.9839C278.488 51.8026 276.779 49.7843 274.914 47.9548C274.217 49.7635 273.467 51.5723 272.77 53.1476V53.0893ZM265.206 51.5723C267.106 52.0196 269.075 52.428 270.975 52.7975C271.864 50.7554 272.718 48.5966 273.607 46.535C272.16 45.018 270.609 43.4621 269.145 42.0424C267.489 42.8981 265.764 43.8122 264.091 44.7263C264.457 46.924 264.823 49.2968 265.206 51.5723ZM256.492 49.1023C258.741 49.8949 261.027 50.5442 263.342 51.0471C263.028 49.2384 262.714 47.3519 262.435 45.5432C260.152 46.8851 258.061 48.0909 256.492 49.1023ZM270.87 41.2061C272.038 42.373 273.223 43.5983 274.356 44.7458C275.402 42.1007 276.238 39.7863 276.639 38.3471C275.28 38.9306 273.171 39.903 270.87 41.1478V41.2061ZM262.993 36.4606C262.993 37.7831 263.376 40.0586 263.777 42.7231L267.698 40.6421C265.747 38.7945 264.039 37.258 262.993 36.4606Z" fill="white"/>
<path d="M985.07 63.9829H983.63C979.956 64.1259 976.325 63.3678 973.345 61.8355C970.365 60.3033 968.217 58.0902 967.262 55.5672C962.343 55.0555 957.695 53.6456 953.774 51.4755C943.364 45.9657 944.608 37.3407 950.501 31.2498C954.658 26.6932 961.729 23.4152 968.146 24.7403C968.146 22.0203 968.768 17.208 973.449 14.4647C977.41 12.1399 983.27 11.9539 990.832 13.6743C993.864 14.3527 996.742 15.3394 999.376 16.6035C1002.37 14.1409 1006.54 12.5442 1011.08 12.1158C1015.62 11.6873 1020.23 12.4569 1024.03 14.2787C1027.73 15.8139 1030.85 17.9714 1033.1 20.5616C1035.35 23.1518 1036.68 26.0955 1036.96 29.1342C1039.34 29.2304 1041.68 29.6646 1043.83 30.4112C1045.98 31.1578 1047.89 32.2017 1049.46 33.4816C1056.76 39.0146 1055.16 47.4304 1045.34 55.0092C1036.47 61.8209 1022.42 66.4007 1013.75 61.4954C1012.63 60.884 1011.61 60.1904 1010.7 59.4263C1005.07 62.3788 996.201 63.9829 985.07 63.9829ZM970.732 55.6601C971.651 57.5577 973.443 59.1806 975.817 60.2684C978.192 61.3562 981.013 61.8456 983.826 61.6581C994.924 61.8209 1003.66 60.333 1008.9 57.4967C1007.49 55.9507 1006.59 54.1996 1006.26 52.3728C1005.93 50.546 1006.19 48.6901 1007 46.9422C1008.12 44.7801 1010.11 43.4317 1012.27 43.5014C1013.42 43.5014 1015.55 43.9897 1016.79 46.8259C1017.56 48.4991 1017.74 50.2781 1017.34 52.0135C1016.93 53.7489 1015.95 55.3901 1014.47 56.7993C1014.09 57.1563 1013.69 57.4978 1013.26 57.8222C1014.07 58.4705 1014.96 59.0692 1015.91 59.6123C1022.75 63.518 1035.09 59.4961 1043.08 53.3586C1049.89 48.1278 1054.54 40.5722 1047.2 34.9927C1045.94 33.9252 1044.39 33.051 1042.64 32.4235C1040.89 31.796 1038.98 31.4283 1037.02 31.3428C1037.02 31.9937 1036.89 32.5981 1036.63 33.1561C1036.14 35.3085 1034.71 37.2973 1032.54 38.8411C1030.38 40.3848 1027.58 41.4052 1024.55 41.7578C1020.46 42.1298 1019.25 40.6187 1018.92 39.9445C1017.74 37.6197 1021.44 33.4351 1027.04 31.0173C1029.04 30.1294 1031.26 29.5218 1033.59 29.2272C1033.36 26.5559 1032.2 23.966 1030.23 21.687C1028.25 19.4081 1025.51 17.5103 1022.26 16.1618C1019.11 14.6613 1015.29 14.038 1011.53 14.4111C1007.78 14.7843 1004.35 16.1277 1001.9 18.1844C1005.11 20.2545 1007.14 23.0934 1007.59 26.1585C1007.9 27.4444 1007.67 28.7661 1006.93 29.9602C1006.19 31.1543 1004.98 32.1684 1003.44 32.8771C1002.22 33.2587 1000.87 33.3697 999.571 33.1953C998.268 33.021 997.069 32.5695 996.135 31.9007C991.061 28.832 992.861 22.927 997.281 18.6029C994.969 17.4867 992.444 16.61 989.784 15.9991C983.368 14.2787 978.719 14.488 975.446 16.2548C970.306 19.3003 971.55 26.3444 971.55 26.4142C971.591 26.6326 971.543 26.8547 971.413 27.0547C971.283 27.2546 971.075 27.4242 970.814 27.5436C970.554 27.663 970.25 27.7273 969.94 27.729C969.63 27.7307 969.325 27.6698 969.062 27.5533C963.824 25.2285 957.081 28.2973 953.12 32.4354C948.176 37.5267 947.063 44.8963 955.804 49.4994C958.969 51.2818 962.663 52.5299 966.607 53.1494C965.788 47.7791 968.637 41.8741 973.154 40.4095C974.373 40.0235 975.749 39.9714 977.019 40.2633C978.288 40.5552 979.36 41.1704 980.029 41.9903C981.995 43.4667 983.091 45.4216 983.091 47.4536C983.091 49.4856 981.995 51.4406 980.029 52.9169C977.528 54.6312 974.207 55.611 970.732 55.6601ZM1012.04 45.8262C1011.68 45.8262 1010.7 46.2912 1009.95 47.7558C1009.34 49.0943 1009.14 50.5088 1009.35 51.9069C1009.57 53.305 1010.19 54.6552 1011.19 55.8694L1011.72 55.4044C1012.91 54.293 1013.69 52.9906 1014.01 51.6121C1014.32 50.2336 1014.15 48.8214 1013.52 47.5001C1012.99 46.2912 1012.34 45.8262 1012.04 45.8262ZM975.184 42.3855C974.932 42.3944 974.687 42.442 974.464 42.525C971.812 43.3852 968.898 48.3138 969.946 53.3586C971.352 53.3879 972.752 53.2203 974.066 52.8653C975.38 52.5103 976.583 51.9748 977.606 51.2895C979.004 50.2122 979.761 48.7926 979.719 47.3279C979.676 45.8632 978.837 44.467 977.377 43.4317C976.461 42.5948 975.708 42.3855 975.184 42.3855ZM1033.55 31.5985C1031.85 31.8857 1030.23 32.3645 1028.74 33.0166C1023.83 35.1322 1021.6 38.2474 1022.19 39.1773C1022.19 39.5028 1023.4 39.526 1024.29 39.4331C1026.6 39.109 1028.71 38.2806 1030.32 37.0634C1031.94 35.8463 1032.97 34.3013 1033.29 32.6446C1033.39 32.3192 1033.49 31.9472 1033.55 31.5985ZM999.802 19.9745C995.873 23.8802 995.088 28.2275 998.361 30.0176C998.801 30.3908 999.394 30.6565 1000.06 30.7775C1000.72 30.8984 1001.42 30.8685 1002.06 30.6918C1002.96 30.1763 1003.66 29.5002 1004.07 28.7325C1004.48 27.9647 1004.6 27.1326 1004.42 26.3212C1004.02 23.8773 1002.38 21.6209 999.802 19.9745Z" fill="white"/>
</svg>
